<?xml version="1.0" encoding="UTF-8"?>
<svg id="Layer_1" xmlns="http://www.w3.org/2000/svg" version="1.1" viewBox="0 0 322.84 366.61">
  <!-- Generator: Adobe Illustrator 30.5.1, SVG Export Plug-In . SVG Version: 2.1.4 Build 3)  -->
  <defs>
    <style>
      .st0 {
        fill: #f05126;
      }

      .st1 {
        fill: #161e44;
      }

      .st2 {
        fill: #14533c;
      }

      .st3 {
        fill: #f19c21;
      }

      .st4 {
        fill: #ef5882;
      }

      .st5 {
        fill: #12533b;
      }

      .st6 {
        fill: #f59fb8;
      }

      .st7 {
        fill: #f04c26;
      }

      .st8 {
        fill: #492e85;
      }
    </style>
  </defs>
  <g>
    <path class="st5" d="M167.61,212.78c-1.89.24-3.8.45-5.71.46l-8.43.02h0s.03-2.61.03-2.61h2.37s0-5.67,0-5.67c0-.27.12-.43.39-.43h3.63s.01-8.05.01-8.05l4.39-.05.04-4.3c1.17-.04,2.22-.14,3.24-.38v21.03Z"/>
    <path class="st6" d="M157.59,186.57l-4.25.02c-.24,0-.43.1-.45.35v3.09s-13.28,0-13.28,0c-.36,0-.53-.2-.53-.55v-17.28c.84-1.75,2.78-2.74,4.8-2.64,2.64-.09,4.84,1.68,4.63,4.4,2.22-.31,4.14,1.03,4.55,3.18.13.67.12,1.31.11,2.03,1.52-.12,2.95.45,3.81,1.69.29.44.57.9.57,1.4l.04,4.31Z"/>
    <path class="st4" d="M163.07,182.11h-5c-.22,0-.38.04-.52.15,0-.5-.28-.96-.57-1.4-.86-1.23-2.29-1.8-3.81-1.69.01-.72.02-1.36-.11-2.03-.41-2.15-2.33-3.49-4.55-3.18.21-2.71-1.99-4.49-4.63-4.4-2.02-.1-3.96.89-4.8,2.64v-15.12s1.59,0,1.59,0c2.69.02,5.34,2.09,5.15,4.93.67-.02,1.24-.02,1.85.11,1.99.42,3.3,2.15,3.09,4.18,2.87-.24,5.3,1.34,5.74,4.13l.05,1.78c2.19-.15,4.03,1.26,4.36,3.41l.09,1.86c.72-.07,1.42.04,2.04.18l.03,4.42Z"/>
    <path class="st8" d="M172.03,171.21v-1.65s-2.13,0-2.13,0v7.62s-.05.14-.05.14v.18h2.18s0-6.29,0-6.29Z"/>
    <path class="st8" d="M204.34,139.36c-2.14-8.91-6.35-17.58-12.68-24.3-5.83-6.18-13.27-10.66-21.5-12.99-4.4-1.24-9.01-2.07-13.62-2.07l-39.58-.04c-.19,0-.55.22-.55.38v112.58c0,.14.4.34.55.34h21.67s0-6.53,0-6.53c0-.16.1-.35.28-.35l4.5-.02v-5.91c0-.14.07-.35.22-.35l4.27-.02.02-5.46c0-.21.14-.35.35-.35h4.64s0-4.25,0-4.25h-13.29c-.36,0-.53-.19-.53-.54v-17.28s0-15.12,0-15.12v-37.79c0-.19.17-.48.36-.47l11.63.06c6.63.23,13.34,2.14,18.79,5.72v52.71s.04-.14.04-.14v-7.62s2.13,0,2.13,0l-.03-25.63h12.97c2.74,8.19,2.81,17.3.95,25.63-.63,2.75-1.52,5.42-2.71,7.95-.95,2.01-2.09,3.94-3.45,5.73-3.02,3.99-7.21,7.34-12.16,8.51v21.03c6.15-.79,12.03-3.01,17.12-6.6,3.26-2.31,6.14-5.03,8.66-8.12,5.16-6.35,8.75-13.86,10.76-21.77,3-11.8,3.04-25.08.2-36.92ZM184.16,141.85h-12.15s0-15.77,0-15.77c.11-.04.18.06.23.08,5.37,3.96,9.49,9.39,11.95,15.54,0,.03,0,.15-.03.15Z"/>
    <path class="st3" d="M161.7,143.84c-1.39,3.75-5.66,5.52-9.27,3.9-3.42-1.53-4.94-5.43-3.53-8.81,1.42-3.42,5.36-5.12,8.87-3.73,3.43,1.37,5.22,5.15,3.93,8.64Z"/>
    <path class="st2" d="M169.9,169.55v7.62s-.05.14-.05.14c-.02.06-.07.17-.2.17h-5.97c-.27,0-.47.05-.65.19l.03,4.42h-5c-.22,0-.38.04-.52.15l.04,4.31-4.25.02c-.24,0-.43.1-.45.35v3.09s0,4.25,0,4.25h-4.64c-.21,0-.35.14-.35.35l-.02,5.46-4.27.02c-.15,0-.22.21-.2.35v5.91s-4.52.02-4.52.02c-.17,0-.28.19-.28.35v6.51s5.88,0,5.88,0h0s.03-2.09.03-2.09c0-.1.15-.11.26-.11h0s.06,0,.09,0h2.72s.28-.08.28-.08l.03-.79-.04-4.7h3.66c.14,0,.26-.13.26-.27v-5.56s3.58-.04,3.58-.04l.02-6.39h4.26c.15-.04.26-.14.26-.29v-5.24s7.67-.04,7.67-.04l.02-4.24c0-.09.09-.21.2-.21l11.96.03c1.36-1.8,2.5-3.72,3.45-5.73,1.19-2.53,2.08-5.2,2.71-7.95h-16.02Z"/>
  </g>
  <g>
    <path class="st7" d="M117.49,253.19c-1.09-.26-1.48-3.11-.58-4.12,5.29-3.92,12.35-4.35,18.41-1.72,6.86,2.98,13.75,2.05,19.92-2.56,1.07.93,1.15,2.19.89,3.67-.46,2.61-11.29,7.26-22.25,2.9-5.39-2.14-10.79-1.83-16.39,1.84Z"/>
    <path class="st7" d="M117.49,242.08c-1.09-.26-1.48-3.11-.58-4.12,5.29-3.92,12.35-4.35,18.41-1.72,6.86,2.98,13.75,2.05,19.92-2.56,1.07.93,1.15,2.19.89,3.67-.46,2.61-11.29,7.26-22.25,2.9-5.39-2.14-10.79-1.83-16.39,1.84Z"/>
    <path class="st0" d="M116.94,230.94c-.65-1.12-.79-3.6.05-4.42,5.49-3.36,12.33-3.62,18.24-1.14,14.55,6.1,21.65-7.32,20.99.64-.19,2.32-10.58,8.06-21.78,3.45-5.82-2.4-11.84-2.1-17.5,1.49Z"/>
    <path class="st1" d="M120.19,257.36c2.67-.65,5,1.4,5.42,3.42.59,2.82-.89,4.87-3.33,5.67s-4.84-.69-5.56-2.73c-.99-2.82.46-5.63,3.47-6.35Z"/>
  </g>
</svg>