<?xml version="1.0" encoding="UTF-8"?>
<svg id="Layer_1" xmlns="http://www.w3.org/2000/svg" version="1.1" viewBox="0 0 322.84 366.61">
  <!-- Generator: Adobe Illustrator 30.5.1, SVG Export Plug-In . SVG Version: 2.1.4 Build 3)  -->
  <defs>
    <style>
      .st0 {
        fill: #ef3f24;
      }
    </style>
  </defs>
  <path class="st0" d="M176.59,181.43c-2.71-.69-5.35-.59-7.93.34l-4.42,1.59c-4.14,1.49-8.6,1.35-12.59-.51l-1.49-.65c-.6-.26-1.27-.06-1.74.35-1.07.92-.8,3.45.4,4.29,1.91,1.33,3.95,2.41,6.13,3.21,2.44.89,4.96.86,7.41.07l4.34-1.59c2.33-.85,4.7-1.31,7.19-1.2,1.86.08,3.61.4,5.32,1.09l3.24,1.32,3.97,1.44c.73.26,1.13,1.05.95,1.78-.16.62-.38,1.17-.71,1.7-.42.69-1.25,1.2-2.04.92l-3.6-1.29-3.76-1.39c-2.89-.87-5.84-.83-8.67.2l-4.55,1.64c-3.26,1.18-6.72,1.26-10.05.28-1.23-.36-2.34-.86-3.48-1.41-.63-.3-1.33-.33-1.9.08-1.35.97-1,3.74.35,4.54,2.28,1.35,4.79,2.39,7.4,2.86.91.16,1.43.55,1.43,1.55v10.7c.01.84.83,1.23,1.56,1.23h27.57c.8,0,1.44.58,1.44,1.4v21.34c0,.72-.43,1.31-1.19,1.31h-51.38c-.75,0-1.28-.46-1.28-1.23v-108.28c0-.62.53-1.13,1.12-1.13h51.6c.66,0,1.13.55,1.13,1.19v18.56c0,.66-.6,1.25-1.27,1.26h-27.83c-.67,0-1.46.46-1.46,1.21l-.02,16.84c0,.8.68,1.2,1.37,1.16,1.28-.06,2.45-.31,3.64-.77l4.34-1.67c4.14-1.59,8.64-1.42,12.75.26l2.92,1.3c1.18.53,2.33.98,3.57,1.33.93.26,1.27,1.28.91,2.12-.22.52-.36,1.03-.68,1.47-.56.77-1.47,1.03-2.35.7l-4.3-1.63c-1.21-.46-2.35-.9-3.6-1.21-2.52-.62-5.05-.55-7.48.34l-4.29,1.56c-3.28,1.19-6.71,1.48-10.1.62-1.44-.36-2.74-.94-4.07-1.6-.54-.27-1.13-.27-1.69.03-.91.49-1.05,1.59-.9,2.67.11.81.52,1.53,1.21,1.98,1.69,1.09,3.4,2.04,5.26,2.81,1.98.81,4.06,1.11,6.17.75,1.25-.21,2.39-.63,3.58-1.05l4.12-1.47c3.32-.99,6.74-.98,10.05.03l3.61,1.37c1.54.59,3,1.21,4.57,1.7.9.28,1.23,1.3.88,2.1l-.61,1.38c-.51.83-1.44,1.21-2.35.87l-3.93-1.48c-1.27-.48-2.44-.96-3.8-1.31Z"/>
</svg>