<?xml version="1.0" encoding="UTF-8"?>
<svg id="Layer_1" xmlns="http://www.w3.org/2000/svg" version="1.1" viewBox="0 0 322.84 366.61">
  <!-- Generator: Adobe Illustrator 30.5.1, SVG Export Plug-In . SVG Version: 2.1.4 Build 3)  -->
  <defs>
    <style>
      .st0 {
        fill: #1a234d;
      }

      .st1 {
        fill: #ef5c7a;
      }
    </style>
  </defs>
  <path class="st1" d="M161.22,192.63c.29.28.14.84-.1,1.15-.3.38-.43.79-.42,1.29l.05,2.3c-.19,2.18-2.23,2.78-4.23,2.81l-3.98.06c-.89.01-1.41.97-1.39,1.82.09,4.21,1.01,8.84,4.9,10.81,1.37.7,2.84,1.09,4.41,1.09l27.58.03c.75,0,1.32.81,1.32,1.54v22.81c0,.91-.76,1.5-1.59,1.5h-56.34c-.73,0-1.44-.62-1.44-1.42v-110.23c0-.56.6-1.41,1.18-1.41h56.94c.71,0,1.25.92,1.25,1.57v18.66c-.01.85-.73,1.45-1.5,1.45l-26.15.03c-1.29,0-2.41.96-3.11,1.96-.9,1.29-1.19,2.8-1.22,4.34-.02,1.22.32,2.21.64,3.35,1.01,3.59,1.62,7.22,2.32,10.89.24,1.27.86,2.34,1.42,3.48,1.02,2.07,2.22,3.96,3.41,5.93l1.19,1.96c.76,1.26.2,2.76-1.1,3.36-1.5.69-3.22.76-3.56,1.23-.18.26-.25.56-.19.88l.58,2.84c.16.8-.02,1.58-.74,1.97l-1.36.75,1.21,1.2Z"/>
  <path class="st0" d="M191.42,183.99l-13.21-.18c-.48,0-1-.51-1.01-.94l-.02-1.62c0-.45.51-1.04,1.02-1.04l13.26-.18c.7,0,1.37.42,1.38,1.16v1.41c.02.82-.57,1.41-1.42,1.4Z"/>
  <path class="st0" d="M187.1,198.4l-2.78-1.36-8.11-4.15c-.76-.23-1.23-1-.97-1.77l.42-.9c.23-.73.99-1.17,1.7-.82l10.85,5.29c.69.34,1.13,1.05.77,1.8l-.68,1.42c-.14.3-.84.65-1.2.48Z"/>
  <path class="st0" d="M177.45,174.49c-.74.35-1.48.15-1.8-.59l-.33-.78c-.34-.79-.08-1.54.64-1.9l10.64-5.33c.43-.21.81-.28,1.27-.07.34.15.58.53.76.97l.43,1.06c.11.57-.08,1.24-.66,1.51l-10.95,5.15Z"/>
</svg>