<?xml version="1.0" encoding="UTF-8"?>
<svg id="Layer_1" xmlns="http://www.w3.org/2000/svg" version="1.1" viewBox="0 0 322.84 366.61">
  <!-- Generator: Adobe Illustrator 30.5.1, SVG Export Plug-In . SVG Version: 2.1.4 Build 3)  -->
  <defs>
    <style>
      .st0 {
        fill: #f58221;
      }

      .st1 {
        fill: #18202c;
      }

      .st2 {
        fill: #f37f20;
      }
    </style>
  </defs>
  <path class="st0" d="M159.86,197.63s-.08,0-.12.02c.04,0,.08,0,.12-.01.18-.01.37-.03.56-.04-.19.02-.38.03-.56.04Z"/>
  <path class="st0" d="M185.27,148.26l-5.04-.07c-1.97-.03-3.87.03-5.81.23-.2.02-.37-.06-.37-.29l.03-2.59c-.1-6.08-2.61-11.89-6.96-16.02-.99-.94-2.04-1.68-3.2-2.35-.06-.04-.13-.14-.12-.18.07-.22,3.96-.19,5.16-.16,5.31.16,10.08,2.62,13.74,6.51,2.97,3.15,5.2,6.93,6.57,11.07.35,1.07,1.13,4.17.95,4.44-.03.04-.12.1-.22.07-1.56-.4-3.09-.65-4.73-.67Z"/>
  <path class="st1" d="M159.86,197.63c.18-.01.37-.02.56-.04-.19.02-.38.03-.56.04-.04,0-.08,0-.12.01.04,0,.08-.01.12-.02Z"/>
  <polygon class="st1" points="174.16 196.25 174.15 196.25 173.99 196.18 174.15 196.25 174.16 196.25"/>
  <path class="st2" d="M174.15,196.25l-.16-.06.16.07h0s0,0,0,0Z"/>
  <path class="st0" d="M190.4,152.51c-.39-1.18-1.48-1.99-2.8-1.99l-14.89-.03c-.56,0-1-.38-1-.92l-.02-4.39c-.11-3.26-.95-6.43-2.45-9.32-1.16-2.25-2.71-4.2-4.67-5.79-2.31-1.88-5.05-2.91-8.07-2.91h-22.54c-1.01.01-1.78.88-1.78,1.87v108.87c0,.96.67,1.91,1.71,1.91h22.01c.88,0,1.63-.88,1.63-1.74l.02-32.36c0-1.13.97-2.14,2.13-2.14l28.35-.02c1.57,0,2.62-1.36,2.62-2.99v-46.5c0-.61-.09-1.03-.25-1.52ZM183.83,198.66c-.09.55-.57.99-1.18.96-2.32-.1-4.54-.52-6.8-1-3.39-.72-5.21-.74-8.6-.02-2.36.5-4.67.89-7.08,1.02-.67.04-1.17-.4-1.23-1.01-.03-.31.08-.67.31-.91.02-.02.05-.05.07-.07.04-.03.08-.07.12-.09.09-.06.2-.11.31-.13.04,0,.08-.01.12-.02.18-.01.37-.02.56-.04.18-.02.37-.03.56-.05.37-.03.74-.07,1.1-.11,1.22-.14,2.43-.33,3.63-.58l1.7-.34c.55-.11,1.09-.2,1.64-.28.27-.04.55-.07.82-.1.27-.03.55-.06.83-.08h1.67s.69.06.69.06l.92.07.16.07h0s.76.09.76.09c.03.02.09.05.14.06l1.76.36c2.04.42,4.04.7,6.11.89.62.06.97.74.9,1.25ZM160.8,193.7c-.01-.55.43-1.13,1.04-1.15,2.74-.07,3.98-.2,6.55-1.28,1.86-.78,3.84-.93,5.72-.22l2.25.86c1.6.52,3.24.66,4.92.62.52-.01,1,.29,1.16.7.2.5.02.99-.33,1.34-.02.02-.06.03-.1.04-.06.02-.11.06-.13.12-.01,0-.03,0-.04.01-2.43.18-4.99-.18-7.25-1.13l-.37-.13c-.25-.08-.55-.2-.8-.3-.69-.28-1.43-.33-2.18-.31-.76.02-1.48.26-2.24.52l-2.59.9c-1.51.37-3.03.51-4.6.47-.59-.01-1.03-.57-1.03-1.08ZM182.66,185.02h-34.03c-.78,0-1.26-.83-1.23-1.44.03-.71.58-1.39,1.39-1.39h33.83c.76,0,1.26.78,1.28,1.38.02.62-.42,1.45-1.23,1.45ZM182.6,177.18h-33.82c-.8,0-1.34-.64-1.38-1.34-.03-.69.48-1.47,1.3-1.47h33.86c.78,0,1.3.67,1.33,1.33.04.66-.45,1.48-1.3,1.48ZM147.4,167.99c-.01-.69.52-1.44,1.32-1.44h33.61c.83-.01,1.45.45,1.55,1.24.08.63-.37,1.58-1.22,1.58h-33.96c-.77,0-1.28-.73-1.3-1.38ZM182.59,161.52h-33.89c-.76,0-1.27-.69-1.3-1.33-.04-.64.43-1.47,1.23-1.47h33.93c.78-.01,1.3.67,1.33,1.32.03.76-.44,1.37-1.3,1.49Z"/>
</svg>