<?xml version="1.0" encoding="UTF-8"?>
<svg id="Layer_1" xmlns="http://www.w3.org/2000/svg" version="1.1" viewBox="0 0 322.84 366.61">
  <!-- Generator: Adobe Illustrator 30.5.1, SVG Export Plug-In . SVG Version: 2.1.4 Build 3)  -->
  <defs>
    <style>
      .st0 {
        fill: #f05323;
      }

      .st1 {
        fill: #f15927;
      }
    </style>
  </defs>
  <path class="st0" d="M152.27,213.29c2.51-.97,4.97-1.62,7.59-2.25,6.01-1.44,11.99-2.58,18.24-3.63l-.03-26.82c0-2.26-.73-4.36-1.92-6.3-5-8.15-17.22-9.96-25.01-3.85-3.31,2.6-5.4,6.36-5.41,10.41l-.04,27.25,14.72-.3c-5.47.64-10.9,1.3-16.36,2.24-3.41.68-8.58,1.58-10.93,3.68-1.18,1.05-1.26,2.63-.12,3.71,1.98,1.88,6.14,2.92,9.08,3.61l9.28,2.18c2.96.7,7.5,2.18,9.22,4.36,1.71,2.17-.48,4.21-2.73,5.54-1.57.93-3.14,1.72-4.9,2.31l-9.53,3.2-17.72,5.27c-5.37,1.6-10.6,3.33-15.87,5.32V111.96c0-.97.87-1.6,1.86-1.62l27.19.02c1.13,0,1.62,1.02,1.62,1.93v37.94c0,.86.56,1.66,1.6,1.66h40.53c1.06,0,1.72-.72,1.72-1.66v-38.27c0-.95.85-1.6,1.84-1.6l24.76-.02c1.24,0,2.07.7,2.07,1.86v142.45c0,.93-.81,1.64-1.83,1.64h-47.47c-.17-.03-.22-.02-.33,0-.09.02-.14-.13,0-.15.08,0,.14-.02.25-.07l13.56-6.18c3.5-1.59,6.78-3.34,10.04-5.29,3.5-2.1,7.33-4.85,8.98-8.38,1.24-2.65.69-5.47-1.3-7.67-2.66-2.94-6.96-4.87-10.9-6.18-4.7-1.56-9.46-2.62-14.37-3.54l-14.85-2.43-3.99-.8c-.28-.06-.53-.27-.6-.44-.12-.29,0-.59.23-.82.52-.44,1.11-.77,1.83-1.05Z"/>
  <path class="st1" d="M163.27,129.58l-1.24-1.95,1.23-11.02c.54,3.66.94,7.31,1.25,11.03l-1.23,1.94Z"/>
  <path class="st1" d="M167.78,133.11l-2-1.07,1.92-1.12c3.95.26,7.89.56,11.83,1.11-3.98.48-7.78.82-11.76,1.08Z"/>
  <path class="st1" d="M160.72,132l-2.04,1.12-11.67-1.13c4-.52,7.83-.87,11.77-1.14l1.95,1.16Z"/>
  <path class="st1" d="M163.25,147.1c-.51-3.54-.92-7.15-1.19-10.8l1.22-1.91,1.18,1.82c-.3,3.62-.62,7.14-1.2,10.89Z"/>
  <path class="st1" d="M160.84,135.65l-7.01,5.14,5.62-6.51c.7-.31,1.39-.47,2.17-.65l-.77,2.02Z"/>
  <polygon class="st1" points="172.38 140.46 165.69 135.62 164.99 133.61 167.15 134.24 172.38 140.46"/>
  <polygon class="st1" points="167.13 129.71 164.98 130.34 165.75 128.35 172.7 123.19 167.13 129.71"/>
  <path class="st1" d="M153.9,123.34c-.1-.04-.07-.16.05-.15.05.08.1.11.11.11l6.82,5.08.71,1.92-1.98-.55-5.64-6.36s-.04-.04-.07-.05Z"/>
  <path class="st1" d="M128.83,256.09c-.51.22-1.03-.06-1.2-.4-.17-.36-.11-.91.34-1.1l4.25-1.79c.46-.19.95,0,1.18.38.18.3.17.89-.3,1.09l-4.27,1.82Z"/>
  <path class="st1" d="M139.09,251.88c-.57.23-1.1.08-1.32-.35-.24-.47,0-.98.54-1.2l4.01-1.56c.47-.18.96.07,1.13.42s.12.9-.35,1.08l-4.02,1.6Z"/>
  <path class="st1" d="M148.9,248.06c-.54.2-1-.15-1.12-.5-.14-.4,0-.87.47-1.05l4.12-1.57c.45-.17.9.11,1.08.44.19.37.11.91-.38,1.1l-4.17,1.57Z"/>
  <path class="st1" d="M158.82,244.32c-.5.19-.93-.17-1.06-.47-.16-.38-.03-.9.4-1.07l4.03-1.54c.48-.18.96.04,1.14.41.19.4.08.93-.43,1.12l-4.08,1.54Z"/>
  <path class="st1" d="M168.75,240.5c-.55.24-1.09.09-1.31-.37s.02-.92.55-1.16l3.52-1.56c.47-.21,1.03,0,1.2.39.2.44.01.93-.49,1.15l-3.48,1.54Z"/>
  <path class="st0" d="M177.48,235.9c-.44.36-.97.39-1.3.07-.38-.36-.3-.9.12-1.21.78-.55,1.53-1.18,1.93-2.02.23-.48.68-.73,1.2-.52,1.4.55-.62,2.59-1.95,3.67Z"/>
  <path class="st1" d="M165.05,222c.41.11.53.49.44.76s-.44.49-.81.39l-3.3-.86c-.37-.1-.6-.39-.54-.7.06-.34.46-.58.87-.47l3.35.88Z"/>
  <path class="st1" d="M156.46,221.05l-3.45-.79c-.37-.08-.52-.39-.46-.67.05-.23.34-.55.69-.47l3.64.82c.35.08.51.47.43.7-.09.29-.42.51-.85.41Z"/>
  <path class="st1" d="M173.03,224.59c.37.13.44.48.37.74s-.44.49-.81.37l-3.07-1.06c-.41-.14-.67-.35-.61-.73s.52-.61.96-.45l3.16,1.14Z"/>
  <path class="st1" d="M148.67,218.05c.37.09.51.43.42.69-.08.22-.37.45-.7.37l-3.36-.81c-.41-.1-.68-.26-.64-.65.03-.31.39-.57.8-.46l3.47.86Z"/>
  <path class="st1" d="M177.02,226.61c1.38.79,3.28,2.53,2.09,2.97-.34.13-.77.09-.98-.23-1.02-1.57-2.36-1.55-2.04-2.37.09-.24.57-.57.93-.37Z"/>
  <path class="st1" d="M142.21,215.4c.04.61.96.68.65,1.19-.08.13-.29.36-.6.32-.91-.12-1.66-1.11-1.24-1.94.5-.99,2.17-1.89,2.54-1.27.12.2.07.49-.19.64l-.81.48c-.23.14-.36.37-.35.59Z"/>
  <path class="st1" d="M146.46,213.08c-.29.08-.53-.06-.65-.2-.09-.11-.06-.44.17-.51l3.37-.98c.23-.07.44.14.48.27.07.19-.03.45-.3.53l-3.08.9Z"/>
  <path class="st1" d="M156.01,210.49l-3.02.74c-.21.05-.42-.06-.49-.18-.07-.14.01-.43.25-.49l3.03-.67c.21-.05.41.05.46.18.04.1.01.36-.22.42Z"/>
  <path class="st0" d="M160.89,207.65c.15.02.11.16-.03.13-.27.04-.2-.23.03-.13Z"/>
</svg>