<?xml version="1.0" encoding="UTF-8"?>
<svg id="Layer_1" xmlns="http://www.w3.org/2000/svg" version="1.1" viewBox="0 0 322.84 366.61">
  <!-- Generator: Adobe Illustrator 30.5.1, SVG Export Plug-In . SVG Version: 2.1.4 Build 3)  -->
  <defs>
    <style>
      .st0 {
        fill: #16172f;
      }

      .st1 {
        fill: #0d6c4f;
      }

      .st2 {
        fill: #191e4c;
      }

      .st3 {
        fill: #35765e;
      }

      .st4 {
        fill: #181e4b;
      }

      .st5 {
        fill: #ef5672;
      }
    </style>
  </defs>
  <g>
    <path class="st4" d="M185.03,203.6l-3.11-7.93c-3.91-11.36-5.67-23.74-5.71-35.68l-.02-6.22c0-.73-.7-1.48-1.52-1.48h-26.49c-.83,0-1.53.74-1.53,1.48l-.04,6.68c-.03,5.25-.45,10.44-1.16,15.66-1.3,9.57-3.86,18.89-7.72,27.76-.21.47-.17.96.06,1.39l1.3,2.48c2.52,5.03,4.32,10.33,5.47,15.84,1.17,5.61,1.86,11.24,2.02,16.95l.14,4.92.03,9.73c0,.7.78,1.33,1.51,1.33l26.54-.02c.97,0,1.42-1,1.42-1.77l.06-12.53c.15-5.42.67-10.7,1.61-16.03,1.31-7.37,3.57-14.23,7.16-20.81.34-.62.25-1.1,0-1.74ZM163.45,210.56v29.14c0,1.2-1.08,1.94-2.1,1.88-1.19-.06-1.89-.95-1.89-2.11l-.06-28.93c-2.84-.94-4.72-3.59-4.49-6.47.21-2.56,1.98-4.69,4.47-5.49v-28.75c0-1.13.89-1.91,1.95-1.92,1.1-.02,2.01.78,2.01,1.93v28.67c2.54.78,4.43,2.92,4.64,5.53.23,2.91-1.65,5.58-4.54,6.52Z"/>
    <path class="st2" d="M170.08,144.14c-5.38,2.9-11.82,2.85-17.16-.02-4.53-2.43-7.71-6.54-9.05-11.38-2.57-9.24,3.1-19.54,12.89-22.03,5.96-1.52,11.99-.14,16.47,3.63,4.76,3.99,7.12,10,6.34,16.11-.71,5.6-4.15,10.82-9.49,13.69Z"/>
  </g>
  <g>
    <path class="st1" d="M-43.97,284.22s.07-.02.07-.1v-25.58c0-.08-.05-.09-.07-.09,0-.53.53-.95,1.05-.95,0,.01.02.09.1.09l8.58-.08c.4,0,.77-.6.77-.95l.02-9.99c.09-.34.58-.76.96-.76l7.53-.03c.58,0,.91-.46.91-.99v-9.5c0-.51.39-.84.83-.9.02.06.05.1.16.1h7.35s.05-.04.05-.07h-7.5c.06-.07.12-.07.25-.07l7.33-.05c.54,0,.74-.58.74-.97v-8.78c0-.43.48-.8.91-.8h7.16c.57,0,.97-.4.97-.95v-8.35c0-.39.43-.83.89-.83l9.38-.02c.55,0,1.02.47,1.02,1.02v69.43c0,.58-.45,1.08-1.07,1.08h-47.35c-.53,0-1.03-.48-1.03-.91Z"/>
    <path class="st1" d="M5.81,172.8c-.13.08-.14.18-.14.36v12.66c-.11.21-.16.36-.16.55-.23.2-.46.35-.84.35l-17.76.03c-.81,0-1.58.71-1.58,1.47l-.03,24.19c0,.47-.43.85-.89.85l-7.26.04c-.39,0-.92.34-.92.72v4.79s-.03,4.7-.03,4.7c0,.38-.25.69-.56.83-.05-.11-.12-.3-.27-.28-.06,0-.17.06-.18.09s.06.09.15.17h-7.45s-.05.04-.05.08h7.55s-.02.07-.09.07l-7.53.03c-.43,0-.62.58-.62.92v8.85c0,.09-.03.13-.07.16v-9.32s-.07.03-.08.05v9.18c0,.11.04.14.1.18-.04.32-.43.74-.88.75l-7.35.04c-.43,0-.85.37-.85.79v9.36c-.01.52-.4,1.01-.98,1.01h-6.3c-.65-.01-1.05-.5-1.05-1.1v-72.41c0-.51.51-.96,1.04-.96H4.68c.59,0,.89.33,1.13.81Z"/>
    <path class="st0" d="M4.36,195.51c-.06-.31-.29-.5-.64-.61l-12.43-3.84-2.31-.68c-.17-.34-.47-.47-.84-.4-.25.03-.63.23-.63.61v21.88c0,.48.27.77.72.8.35.03.79-.22.79-.65v-11.31c.8-.18,1.39-.43,2.14-.68l12.83-4.3c.35-.12.43-.57.38-.83ZM-10.97,199.84v-7.95s12.39,3.79,12.39,3.79l-12.39,4.16Z"/>
    <path class="st3" d="M5.52,186.36c0-.19.04-.34.16-.55v-12.66c0-.18.01-.28.14-.36l.02,12.75c0,.36-.08.62-.31.82Z"/>
    <polygon class="st5" points="1.42 195.68 -10.97 199.84 -10.97 191.89 1.42 195.68"/>
  </g>
</svg>