<?xml version="1.0" encoding="UTF-8"?>
<svg id="Layer_1" xmlns="http://www.w3.org/2000/svg" version="1.1" viewBox="0 0 322.84 366.61">
  <!-- Generator: Adobe Illustrator 30.5.1, SVG Export Plug-In . SVG Version: 2.1.4 Build 3)  -->
  <defs>
    <style>
      .st0 {
        fill: #f05d7c;
      }
    </style>
  </defs>
  <path class="st0" d="M170.87,169.15c.15.05.26.13.39.22.05.1.14.18.24.22.27.44.29.93.38,1.46l1.29,7.84c.02.09-.05.23.07.3v.28c.01.08,0,.17.08.23l.18,1.09.94,5.69,2.26,13.09.08.39,1.48,8.36c.01.08-.02.17.07.23v.2c0,.08,0,.17.08.23l.21,1.18c.04.24.03.56-.09.8l-1.71,3.25-.17.31-9.62,18.16-3.06,5.8c-.17.31-.56.41-.9.41h-1.45c-.09-.06-.2-.1-.33-.12-.07-.1-.17-.27-.3-.38l.08-46.08c.98-.53,1.69-1.49,1.75-2.59.08-1.53-1.02-2.9-2.62-3.32-1.79-.4-3.5.44-4.18,1.95-.66,1.45-.02,3.17,1.53,4v45.81c0,.38-.29.73-.69.72h-1.75c-.2-.01-.48-.23-.62-.33l-.25-.59-4.18-7.8-1.73-3.29-.21-.37-2.07-3.81-1.12-2.18-1.39-2.64-3.34-6.05c-.26-.47-.73-.92-.63-1.47l.87-4.82,2.03-10.6.07-.42c.04-.22.07-.36.11-.56l.77-4-.05-.33c.24-.23.16-.54.22-.82l.19-.85.24-1.5.15-.81.19-.99,2.03-11.85c.03-.19.03-.34.1-.47s.07-.26.08-.41v-.13c.11-.06.07-.2.08-.3v-.21c.07,0,.09-.05.09-.11,0-.04,0-.08-.07-.1l.15-.92c.07-.43.42-.77.79-.96.2-.1.37-.08.66-.08h22.17c.21,0,.29.02.42.07Z"/>
  <path class="st0" d="M169.18,128.56c.04.05.11.07.18.07h.07c.03.07.11.06.17.07l.63.15.23.08.4.13c.03.07.1.06.16.08l.47.14c.03.06.09.09.16.07.2.12.49.14.69.23l1.47.68,1.35.72,2.03,1.35c1.97,1.49,3.56,3.27,4.64,5.38.75,1.44,1.23,2.92,1.36,4.47,0,.09-.09.24.05.31v.35s0,1.67,0,1.67c-.21,3.94-2.56,7.54-5.87,10.03-.1,0-.16.07-.17.14l-1.41.95c-1.13.66-2.23,1.29-3.45,1.71-.06.02-.14,0-.16.08l-.79.29c-.07-.01-.14.01-.16.07l-.4.13c-.07.02-.19,0-.24.09-.02,0-.05,0-.07,0-.07,0-.14.01-.16.08l-.31.07c-.06.01-.13.01-.16.07h-.08c-.07,0-.14.01-.16.07l-.63.14c-.06.01-.13.01-.17.07h-.08c-.09,0-.19,0-.24.07h-.08c-.09,0-.19,0-.25.07h-.08c-.09,0-.19,0-.24.07h-.08c-.09,0-.19,0-.24.07l-.32.06-.81.13-.7.1-1.04.12-1.4.1c-1.02.07-2.05.07-3.08,0l-1.47-.1-1.05-.1-.71-.09c-.05-.07-.14-.06-.23-.07h-.16s-.42-.09-.42-.09c-.04,0-.1,0-.14,0-.05-.05-.11-.06-.18-.06h-.23c-.04-.06-.1-.08-.17-.08-.05,0-.12,0-.17-.02l-.55-.11s-.1-.03-.14-.02c-.04-.05-.11-.06-.17-.06h-.07c-.05-.08-.15-.07-.24-.07h-.07c0-.06-.07-.07-.12-.07-.07,0-.1.05-.14.07l-.7.38-.48.28c-1.69.99-3.44,1.87-5.24,2.74l-2.77,1.17c-.22.09-.44.14-.65.12l-.32-.13c-.25-.22-.23-.53-.1-.84l1.9-4.47,1.06-2.63c-.01-.17-.3-.29-.39-.37l-.64-.51-.51-.41-1.05-.91c-.17-.15-.18-.23-.32-.37-2.1-2.12-3.39-4.73-3.67-7.55.09-.09.1-.28-.02-.36v-.42s0-.87,0-.87c.02-2.85,1.32-5.61,3.23-7.89,0-.07-.02-.16,0-.2s.2-.05.24-.09c1.52-1.62,3.27-2.98,5.31-4.07,6.33-3.37,13.45-4.1,20.5-2.46ZM151.26,146.4c1.62.08,2.86-1.1,2.9-2.46s-1.22-2.59-2.79-2.57-2.69,1.17-2.7,2.5,1.06,2.45,2.59,2.53ZM160.85,146.39c1.62.2,2.97-.93,3.09-2.3.13-1.39-1.03-2.65-2.62-2.71-1.49-.06-2.71,1-2.84,2.29s.85,2.53,2.37,2.72ZM170.83,146.41c1.41.06,2.53-.83,2.82-1.95.3-1.19-.37-2.39-1.64-2.89-1.58-.62-3.36.3-3.73,1.78-.36,1.47.79,2.98,2.54,3.06Z"/>
</svg>