<?xml version="1.0" encoding="UTF-8"?>
<svg id="Layer_1" xmlns="http://www.w3.org/2000/svg" version="1.1" viewBox="0 0 322.84 366.61">
  <!-- Generator: Adobe Illustrator 30.5.1, SVG Export Plug-In . SVG Version: 2.1.4 Build 3)  -->
  <defs>
    <style>
      .st0 {
        fill: #066743;
      }
    </style>
  </defs>
  <path class="st0" d="M183.76,132.12l.05.05-.21.22c-.03.05-.08.06-.11,0l.27-.27ZM173.89,142.33c2.26-3.99,5.44-7.49,9.52-9.88-2.44,2.09-4.67,4.25-6.56,6.85-1.42,1.95-2.66,3.89-3.88,6,.04-1.12.46-2.01.92-2.97ZM158.12,132.29c-1.78-2.97-3.92-5.53-6.28-8.1,4.31,3.3,7.61,7.7,9.79,12.61.51,1.15.87,2.27.9,3.53-1.47-2.8-2.75-5.45-4.4-8.04ZM198.39,152.11c0-1.02-.98-1.83-1.8-1.81-.63.02-1.03.27-1.39.69l-7.89,7.33-10.65,9.86v22.34c-2.01-3.16-4.17-6.16-6.67-8.99v-24.01c.51-3.41,1.6-6.58,3.13-9.65,7.16,1.05,13.14-3.27,16.52-9.21,2.79-5.05,3.66-10.52,3.77-16.23-5.68-.2-11.61,1.27-16.1,4.64-4.17,3.16-6.71,7.73-7.13,12.92-.18,2.27.17,4.44.85,6.67-.98,1.85-1.82,3.66-2.54,5.73-.39-1.56-.72-2.94-1.27-4.38-.65-1.83-1.4-3.58-2.27-5.31-.18-.37-.28-.58-.12-1,1.23-3.21,1.7-6.63,1.25-10.05-.67-5.12-3.08-9.74-6.87-13.27-4.9-4.49-10.92-6.74-17.46-7.67-.5,4.94-.62,9.87.49,14.67.93,4.17,2.75,8.01,5.51,11.29,3.63,4.22,8.75,6.86,14.36,6.67,2.2,4.48,3.61,9.19,4.03,14.16v19.8c-4.73-4.77-9.5-9.25-14.44-13.69l-5.21-4.68-16.68-14.6c-.87-.76-1.75-1.35-2.97-1.31-1.2.03-2.4,1-2.4,2.34v108.34c0,1.07,1.06,2.14,2.08,2.14l20.71.02c1.08-.32,1.76-1.01,1.85-2.11l.05-33.73c0-3.49,1.72-6.74,4.25-9.01,1.96-1.76,4.64-2.58,5.18-2.73-.05-.05-.11-.12-.19-.2l-1.9-1.91s-.08,0-.1,0c-.31,0-.62,0-.94,0-1.46,0-2.91-.13-4.36-.26-3.33-.31-6.7-.92-9.35-3.08,2.79-.38,5.86.52,8.41,1.74.92.44,1.89.7,2.89.95.38.09.76.17,1.14.25.38.07.77.14,1.16.2.38.06.75.11,1.13.19l-2.67-2.68c-1.76-1.96-3.43-4-4.94-6.15-1.28-1.83-2.44-3.75-3.42-5.75-1.03-.27-2.44-.77-3.06-.92-2.3-.55-4.29-1.98-5.66-3.94.03.05.23.03.29.04,1.1.18,2.12.64,3.05,1.25.96.63,1.76,1.45,2.66,2.15.35.27.73.51,1.15.69.33.14.97.49,1.56.71-.95-1.92-1.73-3.91-2.32-5.97-.63-2.2-.93-4.43-1.22-6.69-.34-2.71-.73-5.41-.97-8.13l1.55,8.72c1.02,5.78,3.43,11.14,6.88,15.9,2.77,3.8,5.94,7.22,9.36,10.38-.68-1.76-1.34-3.55-1.85-5.44-1.44-5.4-2.45-11.42-.24-16.77-.11.26.22.68.31.92.94,2.42.64,5.08.36,7.59-.31,2.73-.22,5.16.27,7.87.34,1.87.78,3.72,1.3,5.54.11.37.13.65.41.92l1.86,1.59c2.23-.08,4.36.49,6.22,1.53l-.36-4.06-.32-2.71c-.06-2.36.23-4.75,1.31-6.96.48,1.76.62,3.45.48,5.17-.03.77-.14,1.51-.28,2.25-.4,2.11-.57,4.24-.72,6.38,3.7,2.11,6.27,6.07,6.28,10.37l.06,33.65c.02,1.18.78,1.95,1.89,2.27l20.7-.05c1.11,0,2.03-1.16,2.03-2.22v-101.51Z"/>
</svg>