<?xml version="1.0" encoding="UTF-8"?>
<svg id="Layer_1" xmlns="http://www.w3.org/2000/svg" version="1.1" viewBox="0 0 322.84 366.61">
  <!-- Generator: Adobe Illustrator 30.5.1, SVG Export Plug-In . SVG Version: 2.1.4 Build 3)  -->
  <defs>
    <style>
      .st0 {
        fill: #ef6685;
      }

      .st1 {
        fill: #17224b;
      }

      .st2 {
        fill: #e2ceb9;
      }
    </style>
  </defs>
  <path class="st1" d="M200.87,239.78l-30.19-.08-.1.02-.02-26.46c-.31-2.22-1.93-3.92-4.09-4.12h-4.23s-.02-11-.02-11c4.37-.62,8.13-3.36,10.88-6.84,4.54-5.75,6.53-13.21,6.63-20.54.09-6.65-1.28-12.94-4.56-18.69-2.6-4.57-6.28-7.98-11.39-9.22v-2.67c0-2.03-1.41-3.76-3.44-3.91-2.13-.16-3.91,1.64-3.92,3.82v2.77c-5.22,1.18-9.11,5.12-11.71,9.74-2.68,4.78-4.07,10.17-4.26,15.67v3.08c.28,7.21,2.33,14.31,6.81,19.97,2.69,3.38,6.43,6.11,10.67,6.8v11.02s-4.43.06-4.43.06c-2.17.17-4.08,2.1-4.08,4.42l-.02,26.14h-27.77s0-112.89,0-112.89l39.84.05c3.83,0,7.6.85,11.26,1.88,4.47,1.43,8.6,3.61,12.15,6.72,3.48,3.05,6.25,6.78,8.35,10.95,4.91,9.78,6.02,21.23,3.72,31.93-1.9,8.43-5.95,15.84-12.61,21.22l16.74,39.51c.08.19.18.28.08.39l-.28.3Z"/>
  <path class="st0" d="M170.58,239.71h-.07s-.11,0-.11,0h-1.33s0,.01,0,.01c-.06,0-.3,0-.3-.14v-25.7c0-.52-.46-.96-.97-.96h-15.52c-.58-.01-1.07.42-1.07,1.04v25.17s.04.58.04.58h-.03s-.54,0-.54,0h-.05s-1.21,0-1.21,0v-26.14c.02-2.32,1.93-4.25,4.09-4.42l4.44-.06v-11.02c1.43.23,2.83.24,4.27.04l.03,11h4.23c2.16.2,3.78,1.91,4.09,4.13l.02,26.46Z"/>
  <path class="st2" d="M168.41,192.43c-3.98,3.37-9.12,4.31-13.78,1.78l10.12-17.9,10.29-18.2c2.16,5.9,2.56,12.52,1.49,18.68-1.05,5.85-3.61,11.72-8.11,15.64Z"/>
  <path class="st2" d="M150.46,190.95c-1.38-1.27-2.35-2.91-3.34-4.52l11.09-19.56,7.25-12.72,3.32-5.71c1.37,1.21,2.5,2.55,3.48,4.07l-21.8,38.43Z"/>
  <path class="st2" d="M143.61,176.39c-1.24-7.43-.48-15.15,2.98-21.79,1.87-3.59,4.76-6.96,8.46-8.54,2.27-.93,4.65-1.28,7.17-.82l-7.05,11.79-10.29,17.22-1.28,2.13Z"/>
  <path class="st0" d="M161.92,142.58c-1.28-.16-2.41-.19-3.66,0l.04-2.78c.01-.8.74-1.5,1.51-1.62,1.18-.19,2.12.81,2.12,1.99v2.42Z"/>
</svg>