<?xml version="1.0" encoding="UTF-8"?>
<svg id="Layer_1" xmlns="http://www.w3.org/2000/svg" version="1.1" viewBox="0 0 322.84 366.61">
  <!-- Generator: Adobe Illustrator 30.5.1, SVG Export Plug-In . SVG Version: 2.1.4 Build 3)  -->
  <defs>
    <style>
      .st0 {
        fill: #d5596b;
      }
    </style>
  </defs>
  <path class="st0" d="M123.38,225.94c-.46-.56-.89-.97-1.25-1.51-.6-.9-.68-1.93-.14-2.91.43-.8,1.35-1.48,2.47-1.61,1.6-.18,2.75.6,3.63,1.7,2.09,2.61,4.89,5.42,7.59,7.58,6.84,5.47,15.85,8.89,25.13,8.65,9.59-.25,18.38-4.18,24.03-11.14l.23-.29c2.43-2.99,3.96-6.43,4.76-10.09.5-2.31.56-4.61.23-6.95-1.02-7.17-5.42-13.17-11.98-17.27-5.24-3.27-12.4-5.59-18.46-7.44-3.26-1-6.27-2.33-9.02-4.16-2.41-1.6-4.82-3.84-6.51-6.05-2.86-3.74-4.63-8.26-4.76-12.83-.19-6.66,2.46-13.1,7.46-17.99,1.68-1.64,3.49-3.02,5.6-4.22,5.1-2.89,11.11-4.33,17.16-3.92,3.15.21,6.07.89,8.96,1.98,2.95,1.11,5.57,2.63,7.99,4.51.72.56,1.31,1.15,1.98,1.74,1.26,1.12,1.47,2.76.29,4.05-1.17,1.29-3.52,1.58-4.98.32-1.98-1.72-4.03-3.3-6.57-4.4-2.7-1.17-5.46-1.9-8.49-2.06-6.79-.36-13.5,2.29-17.78,7.04-3.43,3.79-5.24,8.56-4.93,13.44.21,3.3,1.57,6.35,3.57,9.08.48.66,1.43,1.64,2.05,2.25,2.48,2.41,6,4.4,9.46,5.51l4.45,1.42c4.46,1.43,8.78,3.05,12.95,5.08,7.16,3.48,12.53,8.39,15.82,15.07,1.95,3.95,2.95,8.62,2.73,12.96-.41,7.97-4.44,15.5-10.83,20.99-7.06,6.07-16.52,9.3-26.31,9.23-3.59-.03-7.02-.43-10.49-1.28-6.09-1.5-11.71-4.13-16.62-7.69-3.54-2.56-6.67-5.48-9.42-8.76Z"/>
  <path class="st0" d="M160.56,232.1c-5.42.12-10.18-1.02-14.89-3.32-3.4-1.66-6.32-3.78-9-6.28-2.16-2.02-4.08-4.17-5.73-6.53-.58-.83-.65-1.75-.25-2.69.61-1.41,2.56-2.33,4.35-1.56.48.21.94.38,1.27.8l1.52,1.94c.93,1.19,3.03,3.42,4.19,4.46,5.09,4.61,11.29,7.66,18.73,7.28,7.47-.38,14.44-5.34,15.79-12.01.9-4.41-1.38-8.99-5.04-11.87-1.11-.87-2.24-1.64-3.53-2.34-2.51-1.35-5.15-2.38-7.91-3.3l-5.78-1.94c-2.27-.76-4.42-1.55-6.55-2.58-5.21-2.5-9.78-5.82-13.33-10.1-5.58-6.72-8.5-15.06-7.92-23.48.38-5.46,1.98-10.7,4.84-15.52,1.67-2.82,3.73-5.36,6.14-7.68,7.98-7.7,19.24-12.09,31.02-11.85,3.13.06,6.19.46,9.2,1.2.89.22,1.69.4,2.55.68l2.32.76,1.76.69c2.97,1.17,6.88,3.27,9.31,5.14l3.48,2.67c.56.43.93.88,1.22,1.53.58,1.31-.14,2.8-1.5,3.49-1.12.57-3.07.42-3.75-.19-2.85-2.53-6.01-4.75-9.59-6.45-4.53-2.16-9.4-3.36-14.51-3.57-10.84-.45-21.44,3.93-28.16,11.52-2.16,2.44-3.89,5.11-5.2,8.02-.87,1.94-1.47,3.89-1.91,5.95-1.48,6.84-.3,13.8,3.37,19.94,1.7,2.85,3.91,5.43,6.55,7.63,3.89,3.24,8.38,5.41,13.37,6.98,4.14,1.3,8.2,2.58,12.17,4.26,3.68,1.56,7.36,3.84,9.88,6.74,6.71,7.73,5.99,18.04-1.59,25.03-4.43,4.09-10.53,6.41-16.89,6.55Z"/>
  <path class="st0" d="M156.96,201.53c3.21,1.13,6.62,2.46,8.97,4.65,2.83,2.65,3.68,6.51,1.99,9.86-1.43,2.84-4.38,4.66-7.82,4.91-2.94.22-5.48-.56-8.06-1.74-.52-.24-.88-.6-1.23-1.04-.7-.88-.7-2.07-.08-2.99.58-.87,1.7-1.5,2.94-1.35.29.03.71.05.96.17,1.21.58,2.4,1.09,3.79,1.22,1.26.12,2.49-.32,3.11-1.33.74-1.19.64-2.64-.29-3.74-.61-.73-1.45-1.29-2.4-1.71-2.79-1.23-5.71-2.12-8.6-3.17l-1.52-.55c-3.11-1.13-6.15-2.26-9.11-3.7-7.02-3.42-13-8.22-17.38-14.22-2.14-2.94-3.91-6.02-5.28-9.31-3.5-8.41-4.14-16.96-2.37-25.78,1.36-6.77,4.4-13.33,8.69-18.97,2.47-3.24,5.09-5.88,8.29-8.53,2.65-2.19,5.51-4.08,8.62-5.75,7.44-4.01,15.82-6.4,24.51-6.86,5.61-.3,11.17.35,16.56,1.67,7.61,1.87,15.83,5.71,21.73,10.33l1.82,1.42.79.63c1.02.81,1.51,2.4.74,3.58-1.09,1.66-3.34,2.06-5.13,1.03-.45-.26-.75-.62-1.17-.94-1.61-1.28-3.22-2.47-4.97-3.61-4.2-2.73-9.34-5.01-14.31-6.4-9.81-2.73-20.33-2.38-29.89,1-4.75,1.68-9.17,4.01-13.08,6.91-2.5,1.85-5.65,4.84-7.57,7.18-1.72,2.1-3.27,4.25-4.56,6.6-3.65,6.6-5.6,13.88-5.33,21.26.36,9.72,4.93,19.45,12.32,26.53,3.03,2.9,6.98,5.75,10.87,7.6l.83.4c2.09.99,4.2,1.81,6.42,2.59l6.19,2.18Z"/>
  <path class="st0" d="M113.22,230.02c.96-1.5,2.81-1.92,4.45-1.22.69.29,1.1.69,1.54,1.25.55.71,1.2,1.37,1.82,2.03l1.07,1.14c1.17,1.25,2.5,2.34,3.85,3.45l1.38,1.14c.91.75,1.86,1.4,2.86,2.08,4.87,3.33,10.88,6.06,16.76,7.6,3.18.84,6.34,1.38,9.63,1.62.82.06,1.56.07,2.4.09,9.17.23,17.81-2.14,25.46-6.61,7.22-4.22,13.07-10.79,16.16-17.99,1.64-3.82,2.65-7.78,2.71-11.89.1-6.79-2.1-13.43-6.14-19.15-1.4-1.98-2.97-3.72-4.77-5.41-1.5-1.4-2.85-2.41-4.56-3.58-4.05-2.79-8.61-4.67-13.56-5.74-1.59-.34-2.48-1.9-2.17-3.19.33-1.41,1.8-2.42,3.51-2.19,2.02.28,6.27,1.71,8.26,2.51l.74.3,1.66.72c4.45,1.93,8.43,4.64,11.82,7.87.8.76,1.44,1.48,2.15,2.26,1.77,1.93,3.82,4.84,5.01,7.09l.82,1.55c.97,1.83,1.66,3.68,2.27,5.64,1.16,3.72,1.78,7.5,1.68,11.4-.13,5.34-1.46,10.5-3.78,15.41-1.9,4.03-4.54,7.69-7.69,11.02-5.79,6.13-13.43,10.77-21.91,13.4-9.61,2.99-19.83,3.18-29.68.98-6.94-1.55-13.42-4.2-19.25-7.9-3.4-2.16-6.56-4.59-9.43-7.29-1.73-1.63-3.23-3.28-4.74-5.06-.82-.96-1.01-2.27-.33-3.34Z"/>
  <ellipse class="st0" cx="167.19" cy="161.24" rx="10.67" ry="9.56"/>
</svg>