<?xml version="1.0" encoding="UTF-8"?>
<svg id="Layer_1" xmlns="http://www.w3.org/2000/svg" version="1.1" viewBox="0 0 322.84 366.61">
  <!-- Generator: Adobe Illustrator 30.5.1, SVG Export Plug-In . SVG Version: 2.1.4 Build 3)  -->
  <defs>
    <style>
      .st0 {
        fill: #f9a41d;
      }

      .st1 {
        fill: #046947;
      }

      .st2 {
        fill: #055c3d;
      }
    </style>
  </defs>
  <path class="st1" d="M225.05,135.03l-9.94-9.15-11.21-10.3c-.31-.28-.69-.39-1.09-.25-.28.1-.66.45-.66.9l-.03,4.3c0,.76.14,1.49-.08,2.28l-38.01-.06-.03,5.59c0,.35-.48.55-.77.55l-3.96.05c-.84.01-1.68.63-2.14,1.33l-2.95,4.55c-.19.3-.66.21-.83-.06-.98-1.61-1.89-3.19-3.04-4.69-.53-.69-1.46-1.13-2.31-1.14l-4.12-.04c-.29,0-.54-.37-.54-.67l-.03-5.36-44.93-.04c-.62,0-1.31.51-1.31,1.17v24.32c.01.95,1.26,1.11,1.92,1.11l5.24-.02c.41,0,.79.1,1.21.02.72-.13,1.47-.02,2.21.06,1.04-.18,1.96-.08,3.01-.09l21.11-.02c.48,0,.53.28.53.71v105.24c0,.14.07.16.12.16v-20.48c.05,0,.11.06.12.09v19.82c.21.13.42.26.36.5-.03.13-.13.27-.34.31.04.37.43.75.97.75h40.66c.7-.01,1.06-.8,1.06-1.41v-104.99c0-.28.09-.59.25-.71h5.05s3.04,0,3.04,0h15.11s1,.01,1,.01c.53,0,1.03.11,1.59-.03.23-.06.83-.03.92.2-.14,1.07-.06,2.04-.06,3.07v3.8c0,.47.39.83.68.94.56.21.86-.06,1.25-.42l10.99-10.14,9.94-9.15c.43-.39.73-.72.76-1.26.04-.58-.28-.98-.72-1.39ZM132.42,234.81v-13.71s.11.04.12.08v13.44c0,.1,0,.16-.12.2ZM132.41,220.41v-49.81c.06.02.09.05.12.08v49.51c0,.09,0,.16-.12.21ZM132.42,170.05v-20.01c.05,0,.11.05.12.08v19.73c0,.09,0,.16-.12.2ZM152.24,202.33s0-.03,0-.05c0-.03,0-.06.01-.08,0,0,0-.02.01-.03,0,0,0-.01.01-.02.01-.02.03-.03.04-.04,0,0,.02,0,.02,0,0,.05,0,.1-.02.14-.01.04-.03.08-.06.12,0-.01,0-.03-.01-.04ZM155.26,187.85l-.08-.05-.06,14.14h-2.64s-.07-14.14-.07-14.14c-.03,0-.06,0-.09.02-.26.05-.41.17-.65.32l-15.09,9.15,1.67-5.35,12.86-40.31,2.44-7.84c.03-.09.19-.18.24-.21.07-.04.21.04.26.2l3.73,11.87,8.5,26.68,4.71,14.93-15.72-9.4Z"/>
  <path class="st0" d="M164.03,122.75l-.03,5.59c0,.35-.48.55-.77.55l-3.96.05c-.84.01-1.68.63-2.14,1.33l-2.95,4.55c-.19.3-.66.21-.83-.06-.98-1.61-1.89-3.19-3.04-4.69-.53-.69-1.46-1.13-2.31-1.14l-4.12-.04c-.29,0-.54-.37-.54-.67l-.03-5.36-.02-11.41c0-.75.57-1.33,1.33-1.32l18.21.02c.58,0,1.19.5,1.19,1.08v11.54Z"/>
  <path class="st2" d="M132.89,255.42c-.03.13-.13.27-.34.31-.05-.06-.15-.15-.15-.25v-20.48c.05,0,.11.06.12.09v19.82c.21.13.42.26.36.5Z"/>
  <path class="st0" d="M160.32,179.35c-1.53-4.13-2.83-8.21-4.06-12.41-.83-2.86-1.57-5.61-2.11-8.52-.04-.2-.18-.32-.31-.35-.13-.03-.33.06-.37.26-.51,2.64-1.14,5.15-1.95,7.73l-3.43,11.06-.82,2.23,5.04,4.73v64.13c0,.28.21.51.49.51l1.94.04c.29,0,.52-.23.52-.51v-64.21s5.05-4.69,5.05-4.69Z"/>
  <path class="st2" d="M132.53,220.21c0,.09,0,.16-.12.21v-49.81c.06.02.09.05.12.08v49.51Z"/>
  <path class="st2" d="M132.53,169.85c0,.09,0,.16-.12.2v-20.01c.05,0,.11.05.12.08v19.73Z"/>
  <path class="st2" d="M132.53,234.61c0,.1,0,.16-.12.2v-13.71s.11.04.12.08v13.44Z"/>
  <path class="st1" d="M152.34,202.1c0,.09-.03.19-.08.27-.04-.08-.02-.24.08-.27Z"/>
</svg>