<?xml version="1.0" encoding="UTF-8"?>
<svg id="Layer_1" data-name="Layer 1" xmlns="http://www.w3.org/2000/svg" viewBox="0 0 706.53 325.48">
  <defs>
    <style>
      .cls-1 {
        fill: #f05126;
      }

      .cls-2 {
        fill: #ef3f24;
      }

      .cls-3 {
        fill: #06593f;
      }

      .cls-4 {
        fill: #16172f;
      }

      .cls-5 {
        fill: #f9a41d;
      }

      .cls-6 {
        fill: #f05323;
      }

      .cls-7 {
        fill: #161e44;
      }

      .cls-8 {
        fill: #0d6c4f;
      }

      .cls-9 {
        fill: #faa21b;
      }

      .cls-10 {
        fill: #191e4c;
      }

      .cls-11 {
        fill: #f58221;
      }

      .cls-12 {
        fill: #0b1639;
      }

      .cls-13 {
        fill: #ef6685;
      }

      .cls-14 {
        fill: #17224b;
      }

      .cls-15 {
        fill: #066743;
      }

      .cls-16 {
        fill: #f15927;
      }

      .cls-17 {
        fill: #14533c;
      }

      .cls-18 {
        fill: #f19c21;
      }

      .cls-19 {
        fill: #18202c;
      }

      .cls-20 {
        fill: #046947;
      }

      .cls-21 {
        fill: #1a234d;
      }

      .cls-22 {
        fill: #ef5882;
      }

      .cls-23 {
        fill: #35765e;
      }

      .cls-24 {
        fill: #e2ceb9;
      }

      .cls-25 {
        fill: #12533b;
      }

      .cls-26 {
        fill: #d5596b;
      }

      .cls-27 {
        fill: #ef5c7a;
      }

      .cls-28 {
        fill: #181e4b;
      }

      .cls-29 {
        fill: #ef5672;
      }

      .cls-30 {
        fill: #f59fb8;
      }

      .cls-31 {
        fill: #f04c26;
      }

      .cls-32 {
        fill: #055c3d;
      }

      .cls-33 {
        fill: #492e85;
      }

      .cls-34 {
        fill: #f05d7c;
      }

      .cls-35 {
        fill: #f37f20;
      }
    </style>
  </defs>
  <g>
    <g>
      <path class="cls-26" d="M337.18,115.83c-.46-.56-.89-.97-1.25-1.51-.6-.9-.68-1.93-.14-2.91.43-.8,1.35-1.48,2.47-1.61,1.6-.18,2.75.6,3.63,1.7,2.09,2.61,4.89,5.42,7.59,7.58,6.84,5.47,15.85,8.89,25.13,8.65,9.59-.25,18.38-4.18,24.03-11.14l.23-.29c2.43-2.99,3.96-6.43,4.76-10.09.5-2.31.56-4.61.23-6.95-1.02-7.17-5.42-13.17-11.98-17.27-5.24-3.27-12.4-5.59-18.46-7.44-3.26-1-6.27-2.33-9.02-4.16-2.41-1.6-4.82-3.84-6.51-6.05-2.86-3.74-4.63-8.26-4.76-12.83-.19-6.66,2.46-13.1,7.46-17.99,1.68-1.64,3.49-3.02,5.6-4.22,5.1-2.89,11.11-4.33,17.16-3.92,3.15.21,6.07.89,8.96,1.98,2.95,1.11,5.57,2.63,7.99,4.51.72.56,1.31,1.15,1.98,1.74,1.26,1.12,1.47,2.76.29,4.05-1.17,1.29-3.52,1.58-4.98.32-1.98-1.72-4.03-3.3-6.57-4.4-2.7-1.17-5.46-1.9-8.49-2.06-6.79-.36-13.5,2.29-17.78,7.04-3.43,3.79-5.24,8.56-4.93,13.44.21,3.3,1.57,6.35,3.57,9.08.48.66,1.43,1.64,2.05,2.25,2.48,2.41,6,4.4,9.46,5.51l4.45,1.42c4.46,1.43,8.78,3.05,12.95,5.08,7.16,3.48,12.53,8.39,15.82,15.07,1.95,3.95,2.95,8.62,2.73,12.96-.41,7.97-4.44,15.5-10.83,20.99-7.06,6.07-16.52,9.3-26.31,9.23-3.59-.03-7.02-.43-10.49-1.28-6.09-1.5-11.71-4.13-16.62-7.69-3.54-2.56-6.67-5.48-9.42-8.76Z"/>
      <path class="cls-26" d="M374.36,122c-5.42.12-10.18-1.02-14.89-3.32-3.4-1.66-6.32-3.78-9-6.28-2.16-2.02-4.08-4.17-5.73-6.53-.58-.83-.65-1.75-.25-2.69.61-1.41,2.56-2.33,4.35-1.56.48.21.94.38,1.27.8l1.52,1.94c.93,1.19,3.03,3.42,4.19,4.46,5.09,4.61,11.29,7.66,18.73,7.28,7.47-.38,14.44-5.34,15.79-12.01.9-4.41-1.38-8.99-5.04-11.87-1.11-.87-2.24-1.64-3.53-2.34-2.51-1.35-5.15-2.38-7.91-3.3l-5.78-1.94c-2.27-.76-4.42-1.55-6.55-2.58-5.21-2.5-9.78-5.82-13.33-10.1-5.58-6.72-8.5-15.06-7.92-23.48.38-5.46,1.98-10.7,4.84-15.52,1.67-2.82,3.73-5.36,6.14-7.68,7.98-7.7,19.24-12.09,31.02-11.85,3.13.06,6.19.46,9.2,1.2.89.22,1.69.4,2.55.68l2.32.76,1.76.69c2.97,1.17,6.88,3.27,9.31,5.14l3.48,2.67c.56.43.93.88,1.22,1.53.58,1.31-.14,2.8-1.5,3.49-1.12.57-3.07.42-3.75-.19-2.85-2.53-6.01-4.75-9.59-6.45-4.53-2.16-9.4-3.36-14.51-3.57-10.84-.45-21.44,3.93-28.16,11.52-2.16,2.44-3.89,5.11-5.2,8.02-.87,1.94-1.47,3.89-1.91,5.95-1.48,6.84-.3,13.8,3.37,19.94,1.7,2.85,3.91,5.43,6.55,7.63,3.89,3.24,8.38,5.41,13.37,6.98,4.14,1.3,8.2,2.58,12.17,4.26,3.68,1.56,7.36,3.84,9.88,6.74,6.71,7.73,5.99,18.04-1.59,25.03-4.43,4.09-10.53,6.41-16.89,6.55Z"/>
      <path class="cls-26" d="M370.76,91.42c3.21,1.13,6.62,2.46,8.97,4.65,2.83,2.65,3.68,6.51,1.99,9.86-1.43,2.84-4.38,4.66-7.82,4.91-2.94.22-5.48-.56-8.06-1.74-.52-.24-.88-.6-1.23-1.04-.7-.88-.7-2.07-.08-2.99.58-.87,1.7-1.5,2.94-1.35.29.03.71.05.96.17,1.21.58,2.4,1.09,3.79,1.22,1.26.12,2.49-.32,3.11-1.33.74-1.19.64-2.64-.29-3.74-.61-.73-1.45-1.29-2.4-1.71-2.79-1.23-5.71-2.12-8.6-3.17l-1.52-.55c-3.11-1.13-6.15-2.26-9.11-3.7-7.02-3.42-13-8.22-17.38-14.22-2.14-2.94-3.91-6.02-5.28-9.31-3.5-8.41-4.14-16.96-2.37-25.78,1.36-6.77,4.4-13.33,8.69-18.97,2.47-3.24,5.09-5.88,8.29-8.53,2.65-2.19,5.51-4.08,8.62-5.75,7.44-4.01,15.82-6.4,24.51-6.86,5.61-.3,11.17.35,16.56,1.67,7.61,1.87,15.83,5.71,21.73,10.33l1.82,1.42.79.63c1.02.81,1.51,2.4.74,3.58-1.09,1.66-3.34,2.06-5.13,1.03-.45-.26-.75-.62-1.17-.94-1.61-1.28-3.22-2.47-4.97-3.61-4.2-2.73-9.34-5.01-14.31-6.4-9.81-2.73-20.33-2.38-29.89,1-4.75,1.68-9.17,4.01-13.08,6.91-2.5,1.85-5.65,4.84-7.57,7.18-1.72,2.1-3.27,4.25-4.56,6.6-3.65,6.6-5.6,13.88-5.33,21.26.36,9.72,4.93,19.45,12.32,26.53,3.03,2.9,6.98,5.75,10.87,7.6l.83.4c2.09.99,4.2,1.81,6.42,2.59l6.19,2.18Z"/>
      <path class="cls-26" d="M327.01,119.91c.96-1.5,2.81-1.92,4.45-1.22.69.29,1.1.69,1.54,1.25.55.71,1.2,1.37,1.82,2.03l1.07,1.14c1.17,1.25,2.5,2.34,3.85,3.45l1.38,1.14c.91.75,1.86,1.4,2.86,2.08,4.87,3.33,10.88,6.06,16.76,7.6,3.18.84,6.34,1.38,9.63,1.62.82.06,1.56.07,2.4.09,9.17.23,17.81-2.14,25.46-6.61,7.22-4.22,13.07-10.79,16.16-17.99,1.64-3.82,2.65-7.78,2.71-11.89.1-6.79-2.1-13.43-6.14-19.15-1.4-1.98-2.97-3.72-4.77-5.41-1.5-1.4-2.85-2.41-4.56-3.58-4.05-2.79-8.61-4.67-13.56-5.74-1.59-.34-2.48-1.9-2.17-3.19.33-1.41,1.8-2.42,3.51-2.19,2.02.28,6.27,1.71,8.26,2.51l.74.3,1.66.72c4.45,1.93,8.43,4.64,11.82,7.87.8.76,1.44,1.48,2.15,2.26,1.77,1.93,3.82,4.84,5.01,7.09l.82,1.55c.97,1.83,1.66,3.68,2.27,5.64,1.16,3.72,1.78,7.5,1.68,11.4-.13,5.34-1.46,10.5-3.78,15.41-1.9,4.03-4.54,7.69-7.69,11.02-5.79,6.13-13.43,10.77-21.91,13.4-9.61,2.99-19.83,3.18-29.68.98-6.94-1.55-13.42-4.2-19.25-7.9-3.4-2.16-6.56-4.59-9.43-7.29-1.73-1.63-3.23-3.28-4.74-5.06-.82-.96-1.01-2.27-.33-3.34Z"/>
      <ellipse class="cls-26" cx="380.99" cy="51.13" rx="10.67" ry="9.56"/>
    </g>
    <g>
      <path class="cls-20" d="M310.2,24.92l-9.94-9.15-11.21-10.3c-.31-.28-.69-.39-1.09-.25-.28.1-.66.45-.66.9l-.03,4.3c0,.76.14,1.49-.08,2.28l-38.01-.06-.03,5.59c0,.35-.48.55-.77.55l-3.96.05c-.84.01-1.68.63-2.14,1.33l-2.95,4.55c-.19.3-.66.21-.83-.06-.98-1.61-1.89-3.19-3.04-4.69-.53-.69-1.46-1.13-2.31-1.14l-4.12-.04c-.29,0-.54-.37-.54-.67l-.03-5.36-44.93-.04c-.62,0-1.31.51-1.31,1.17v24.32c.01.95,1.26,1.11,1.92,1.11l5.24-.02c.41,0,.79.1,1.21.02.72-.13,1.47-.02,2.21.06,1.04-.18,1.96-.08,3.01-.09l21.11-.02c.48,0,.53.28.53.71v105.24c0,.14.07.16.12.16v-20.48c.05,0,.11.06.12.09v19.82c.21.13.42.26.36.5-.03.13-.13.27-.34.31.04.37.43.75.97.75h40.66c.7-.01,1.06-.8,1.06-1.41V39.98c0-.28.09-.59.25-.71h5.05s3.04,0,3.04,0h15.11s1,.01,1,.01c.53,0,1.03.11,1.59-.03.23-.06.83-.03.92.2-.14,1.07-.06,2.04-.06,3.07v3.8c0,.47.39.83.68.94.56.21.86-.06,1.25-.42l10.99-10.14,9.94-9.15c.43-.39.73-.72.76-1.26.04-.58-.28-.98-.72-1.39ZM217.57,124.7v-13.71s.11.04.12.08v13.44c0,.1,0,.16-.12.2ZM217.57,110.31v-49.81c.06.02.09.05.12.08v49.51c0,.09,0,.16-.12.21ZM217.57,59.94v-20.01c.05,0,.11.05.12.08v19.73c0,.09,0,.16-.12.2ZM237.4,92.22s0-.03,0-.05c0-.03,0-.06.01-.08,0,0,0-.02.01-.03,0,0,0-.01.01-.02.01-.02.03-.03.04-.04,0,0,.02,0,.02,0,0,.05,0,.1-.02.14-.01.04-.03.08-.06.12,0-.01,0-.03-.01-.04ZM240.42,77.75l-.08-.05-.06,14.14h-2.64s-.07-14.14-.07-14.14c-.03,0-.06,0-.09.02-.26.05-.41.17-.65.32l-15.09,9.15,1.67-5.35,12.86-40.31,2.44-7.84c.03-.09.19-.18.24-.21.07-.04.21.04.26.2l3.73,11.87,8.5,26.68,4.71,14.93-15.72-9.4Z"/>
      <path class="cls-5" d="M249.18,12.64l-.03,5.59c0,.35-.48.55-.77.55l-3.96.05c-.84.01-1.68.63-2.14,1.33l-2.95,4.55c-.19.3-.66.21-.83-.06-.98-1.61-1.89-3.19-3.04-4.69-.53-.69-1.46-1.13-2.31-1.14l-4.12-.04c-.29,0-.54-.37-.54-.67l-.03-5.36-.02-11.41c0-.75.57-1.33,1.33-1.32l18.21.02c.58,0,1.19.5,1.19,1.08v11.54Z"/>
      <path class="cls-32" d="M218.05,145.32c-.03.13-.13.27-.34.31-.05-.06-.15-.15-.15-.25v-20.48c.05,0,.11.06.12.09v19.82c.21.13.42.26.36.5Z"/>
      <path class="cls-5" d="M245.47,69.24c-1.53-4.13-2.83-8.21-4.06-12.41-.83-2.86-1.57-5.61-2.11-8.52-.04-.2-.18-.32-.31-.35-.13-.03-.33.06-.37.26-.51,2.64-1.14,5.15-1.95,7.73l-3.43,11.06-.82,2.23,5.04,4.73v64.13c0,.28.21.51.49.51l1.94.04c.29,0,.52-.23.52-.51v-64.21s5.05-4.69,5.05-4.69Z"/>
      <path class="cls-32" d="M217.69,110.1c0,.09,0,.16-.12.21v-49.81c.06.02.09.05.12.08v49.51Z"/>
      <path class="cls-32" d="M217.69,59.74c0,.09,0,.16-.12.2v-20.01c.05,0,.11.05.12.08v19.73Z"/>
      <path class="cls-32" d="M217.69,124.5c0,.1,0,.16-.12.2v-13.71s.11.04.12.08v13.44Z"/>
      <path class="cls-20" d="M237.49,91.99c0,.09-.03.19-.08.27-.04-.08-.02-.24.08-.27Z"/>
    </g>
    <g>
      <path class="cls-6" d="M42.45,103.18c2.51-.97,4.97-1.62,7.59-2.25,6.01-1.44,11.99-2.58,18.24-3.63l-.03-26.82c0-2.26-.73-4.36-1.92-6.3-5-8.15-17.22-9.96-25.01-3.85-3.31,2.6-5.4,6.36-5.41,10.41l-.04,27.25,14.72-.3c-5.47.64-10.9,1.3-16.36,2.24-3.41.68-8.58,1.58-10.93,3.68-1.18,1.05-1.26,2.63-.12,3.71,1.98,1.88,6.14,2.92,9.08,3.61l9.28,2.18c2.96.7,7.5,2.18,9.22,4.36,1.71,2.17-.48,4.21-2.73,5.54-1.57.93-3.14,1.72-4.9,2.31l-9.53,3.2-17.72,5.27c-5.37,1.6-10.6,3.33-15.87,5.32V1.85C0,.89.87.25,1.86.23l27.19.02c1.13,0,1.62,1.02,1.62,1.93v37.94c0,.86.56,1.66,1.6,1.66h40.53c1.06,0,1.72-.72,1.72-1.66V1.84c0-.95.85-1.6,1.84-1.6l24.76-.02c1.24,0,2.07.7,2.07,1.86v142.45c0,.93-.81,1.64-1.83,1.64h-47.47c-.17-.03-.22-.02-.33,0-.09.02-.14-.13,0-.15.08,0,.14-.02.25-.07l13.56-6.18c3.5-1.59,6.78-3.34,10.04-5.29,3.5-2.1,7.33-4.85,8.98-8.38,1.24-2.65.69-5.47-1.3-7.67-2.66-2.94-6.96-4.87-10.9-6.18-4.7-1.56-9.46-2.62-14.37-3.54l-14.85-2.43-3.99-.8c-.28-.06-.53-.27-.6-.44-.12-.29,0-.59.23-.82.52-.44,1.11-.77,1.83-1.05Z"/>
      <path class="cls-16" d="M53.45,19.47l-1.24-1.95,1.23-11.02c.54,3.66.94,7.31,1.25,11.03l-1.23,1.94Z"/>
      <path class="cls-16" d="M57.96,23l-2-1.07,1.92-1.12c3.95.26,7.89.56,11.83,1.11-3.98.48-7.78.82-11.76,1.08Z"/>
      <path class="cls-16" d="M50.9,21.9l-2.04,1.12-11.67-1.13c4-.52,7.83-.87,11.77-1.14l1.95,1.16Z"/>
      <path class="cls-16" d="M53.44,36.99c-.51-3.54-.92-7.15-1.19-10.8l1.22-1.91,1.18,1.82c-.3,3.62-.62,7.14-1.2,10.89Z"/>
      <path class="cls-16" d="M51.02,25.54l-7.01,5.14,5.62-6.51c.7-.31,1.39-.47,2.17-.65l-.77,2.02Z"/>
      <polygon class="cls-16" points="62.56 30.35 55.87 25.51 55.17 23.5 57.34 24.14 62.56 30.35"/>
      <polygon class="cls-16" points="57.31 19.6 55.17 20.23 55.93 18.24 62.88 13.08 57.31 19.6"/>
      <path class="cls-16" d="M44.08,13.23c-.1-.04-.07-.16.05-.15.05.08.1.11.11.11l6.82,5.08.71,1.92-1.98-.55-5.64-6.36s-.04-.04-.07-.05Z"/>
      <path class="cls-16" d="M19.02,145.98c-.51.22-1.03-.06-1.2-.4-.17-.36-.11-.91.34-1.1l4.25-1.79c.46-.19.95,0,1.18.38.18.3.17.89-.3,1.09l-4.27,1.82Z"/>
      <path class="cls-16" d="M29.27,141.77c-.57.23-1.1.08-1.32-.35-.24-.47,0-.98.54-1.2l4.01-1.56c.47-.18.96.07,1.13.42s.12.9-.35,1.08l-4.02,1.6Z"/>
      <path class="cls-16" d="M39.08,137.95c-.54.2-1-.15-1.12-.5-.14-.4,0-.87.47-1.05l4.12-1.57c.45-.17.9.11,1.08.44.19.37.11.91-.38,1.1l-4.17,1.57Z"/>
      <path class="cls-16" d="M49,134.21c-.5.19-.93-.17-1.06-.47-.16-.38-.03-.9.4-1.07l4.03-1.54c.48-.18.96.04,1.14.41.19.4.08.93-.43,1.12l-4.08,1.54Z"/>
      <path class="cls-16" d="M58.94,130.39c-.55.24-1.09.09-1.31-.37s.02-.92.55-1.16l3.52-1.56c.47-.21,1.03,0,1.2.39.2.44.01.93-.49,1.15l-3.48,1.54Z"/>
      <path class="cls-6" d="M67.66,125.79c-.44.36-.97.39-1.3.07-.38-.36-.3-.9.12-1.21.78-.55,1.53-1.18,1.93-2.02.23-.48.68-.73,1.2-.52,1.4.55-.62,2.59-1.95,3.67Z"/>
      <path class="cls-16" d="M55.23,111.89c.41.11.53.49.44.76s-.44.49-.81.39l-3.3-.86c-.37-.1-.6-.39-.54-.7.06-.34.46-.58.87-.47l3.35.88Z"/>
      <path class="cls-16" d="M46.64,110.94l-3.45-.79c-.37-.08-.52-.39-.46-.67.05-.23.34-.55.69-.47l3.64.82c.35.08.51.47.43.7-.09.29-.42.51-.85.41Z"/>
      <path class="cls-16" d="M63.21,114.49c.37.13.44.48.37.74s-.44.49-.81.37l-3.07-1.06c-.41-.14-.67-.35-.61-.73s.52-.61.96-.45l3.16,1.14Z"/>
      <path class="cls-16" d="M38.85,107.94c.37.09.51.43.42.69-.08.22-.37.45-.7.37l-3.36-.81c-.41-.1-.68-.26-.64-.65.03-.31.39-.57.8-.46l3.47.86Z"/>
      <path class="cls-16" d="M67.21,116.5c1.38.79,3.28,2.53,2.09,2.97-.34.13-.77.09-.98-.23-1.02-1.57-2.36-1.55-2.04-2.37.09-.24.57-.57.93-.37Z"/>
      <path class="cls-16" d="M32.39,105.29c.04.61.96.68.65,1.19-.08.13-.29.36-.6.32-.91-.12-1.66-1.11-1.24-1.94.5-.99,2.17-1.89,2.54-1.27.12.2.07.49-.19.64l-.81.48c-.23.14-.36.37-.35.59Z"/>
      <path class="cls-16" d="M36.64,102.97c-.29.08-.53-.06-.65-.2-.09-.11-.06-.44.17-.51l3.37-.98c.23-.07.44.14.48.27.07.19-.03.45-.3.53l-3.08.9Z"/>
      <path class="cls-16" d="M46.19,100.38l-3.02.74c-.21.05-.42-.06-.49-.18-.07-.14.01-.43.25-.49l3.03-.67c.21-.05.41.05.46.18.04.1.01.36-.22.42Z"/>
      <path class="cls-6" d="M51.07,97.54c.15.02.11.16-.03.13-.27.04-.2-.23.03-.13Z"/>
    </g>
    <g>
      <path class="cls-28" d="M166.32,93.49l-3.11-7.93c-3.91-11.36-5.67-23.74-5.71-35.68l-.02-6.22c0-.73-.7-1.48-1.52-1.48h-26.49c-.83,0-1.53.74-1.53,1.48l-.04,6.68c-.03,5.25-.45,10.44-1.16,15.66-1.3,9.57-3.86,18.89-7.72,27.76-.21.47-.17.96.06,1.39l1.3,2.48c2.52,5.03,4.32,10.33,5.47,15.84,1.17,5.61,1.86,11.24,2.02,16.95l.14,4.92.03,9.73c0,.7.78,1.33,1.51,1.33l26.54-.02c.97,0,1.42-1,1.42-1.77l.06-12.53c.15-5.42.67-10.7,1.61-16.03,1.31-7.37,3.57-14.23,7.16-20.81.34-.62.25-1.1,0-1.74ZM144.74,100.45v29.14c0,1.2-1.08,1.94-2.1,1.88-1.19-.06-1.89-.95-1.89-2.11l-.06-28.93c-2.84-.94-4.72-3.59-4.49-6.47.21-2.56,1.98-4.69,4.47-5.49v-28.75c0-1.13.89-1.91,1.95-1.92,1.1-.02,2.01.78,2.01,1.93v28.67c2.54.78,4.43,2.92,4.64,5.53.23,2.91-1.65,5.58-4.54,6.52Z"/>
      <path class="cls-10" d="M151.37,34.03c-5.38,2.9-11.82,2.85-17.16-.02-4.53-2.43-7.71-6.54-9.05-11.38-2.57-9.24,3.1-19.54,12.89-22.03,5.96-1.52,11.99-.14,16.47,3.63,4.76,3.99,7.12,10,6.34,16.11-.71,5.6-4.15,10.82-9.49,13.69Z"/>
    </g>
    <g>
      <rect class="cls-12" x="656.41" y="187.76" width="20.99" height="81.37"/>
      <polygon class="cls-9" points="706.53 170.78 693.03 185.49 692.62 178.8 677.48 178.8 677.41 187.73 656.41 187.73 656.41 178.8 637.71 178.8 637.71 160.15 656.41 160.15 656.41 150.27 677.73 147.15 677.63 160.15 691.5 160.15 691.1 153.46 706.53 170.78"/>
      <ellipse class="cls-9" cx="667.07" cy="202.65" rx="4.88" ry="4.84"/>
      <ellipse class="cls-9" cx="667.07" cy="220.16" rx="4.88" ry="4.84"/>
      <ellipse class="cls-9" cx="667.07" cy="239.12" rx="4.88" ry="4.84"/>
      <ellipse class="cls-9" cx="667.07" cy="256.64" rx="4.88" ry="4.84"/>
    </g>
    <path class="cls-2" d="M349.98,211.93c-2.71-.69-5.35-.59-7.93.34l-4.42,1.59c-4.14,1.49-8.6,1.35-12.59-.51l-1.49-.65c-.6-.26-1.27-.06-1.74.35-1.07.92-.8,3.45.4,4.29,1.91,1.33,3.95,2.41,6.13,3.21,2.44.89,4.96.86,7.41.07l4.34-1.59c2.33-.85,4.7-1.31,7.19-1.2,1.86.08,3.61.4,5.32,1.09l3.24,1.32,3.97,1.44c.73.26,1.13,1.05.95,1.78-.16.62-.38,1.17-.71,1.7-.42.69-1.25,1.2-2.04.92l-3.6-1.29-3.76-1.39c-2.89-.87-5.84-.83-8.67.2l-4.55,1.64c-3.26,1.18-6.72,1.26-10.05.28-1.23-.36-2.34-.86-3.48-1.41-.63-.3-1.33-.33-1.9.08-1.35.97-1,3.74.35,4.54,2.28,1.35,4.79,2.39,7.4,2.86.91.16,1.43.55,1.43,1.55v10.7c.01.84.83,1.23,1.56,1.23h27.57c.8,0,1.44.58,1.44,1.4v21.34c0,.72-.43,1.31-1.19,1.31h-51.38c-.75,0-1.28-.46-1.28-1.23v-108.28c0-.62.53-1.13,1.12-1.13h51.6c.66,0,1.13.55,1.13,1.19v18.56c0,.66-.6,1.25-1.27,1.26h-27.83c-.67,0-1.46.46-1.46,1.21l-.02,16.84c0,.8.68,1.2,1.37,1.16,1.28-.06,2.45-.31,3.64-.77l4.34-1.67c4.14-1.59,8.64-1.42,12.75.26l2.92,1.3c1.18.53,2.33.98,3.57,1.33.93.26,1.27,1.28.91,2.12-.22.52-.36,1.03-.68,1.47-.56.77-1.47,1.03-2.35.7l-4.3-1.63c-1.21-.46-2.35-.9-3.6-1.21-2.52-.62-5.05-.55-7.48.34l-4.29,1.56c-3.28,1.19-6.71,1.48-10.1.62-1.44-.36-2.74-.94-4.07-1.6-.54-.27-1.13-.27-1.69.03-.91.49-1.05,1.59-.9,2.67.11.81.52,1.53,1.21,1.98,1.69,1.09,3.4,2.04,5.26,2.81,1.98.81,4.06,1.11,6.17.75,1.25-.21,2.39-.63,3.58-1.05l4.12-1.47c3.32-.99,6.74-.98,10.05.03l3.61,1.37c1.54.59,3,1.21,4.57,1.7.9.28,1.23,1.3.88,2.1l-.61,1.38c-.51.83-1.44,1.21-2.35.87l-3.93-1.48c-1.27-.48-2.44-.96-3.8-1.31Z"/>
    <g>
      <path class="cls-27" d="M502.34,221.92c.29.28.14.84-.1,1.15-.3.38-.43.79-.42,1.29l.05,2.3c-.19,2.18-2.23,2.78-4.23,2.81l-3.98.06c-.89.01-1.41.97-1.39,1.82.09,4.21,1.01,8.84,4.9,10.81,1.37.7,2.84,1.09,4.41,1.09l27.58.03c.75,0,1.32.81,1.32,1.54v22.81c0,.91-.76,1.5-1.59,1.5h-56.34c-.73,0-1.44-.62-1.44-1.42v-110.23c0-.56.6-1.41,1.18-1.41h56.94c.71,0,1.25.92,1.25,1.57v18.66c-.01.85-.73,1.45-1.5,1.45l-26.15.03c-1.29,0-2.41.96-3.11,1.96-.9,1.29-1.19,2.8-1.22,4.34-.02,1.22.32,2.21.64,3.35,1.01,3.59,1.62,7.22,2.32,10.89.24,1.27.86,2.34,1.42,3.48,1.02,2.07,2.22,3.96,3.41,5.93l1.19,1.96c.76,1.26.2,2.76-1.1,3.36-1.5.69-3.22.76-3.56,1.23-.18.26-.25.56-.19.88l.58,2.84c.16.8-.02,1.58-.74,1.97l-1.36.75,1.21,1.2Z"/>
      <path class="cls-21" d="M532.54,213.29l-13.21-.18c-.48,0-1-.51-1.01-.94l-.02-1.62c0-.45.51-1.04,1.02-1.04l13.26-.18c.7,0,1.37.42,1.38,1.16v1.41c.02.82-.57,1.41-1.42,1.4Z"/>
      <path class="cls-21" d="M528.22,227.7l-2.78-1.36-8.11-4.15c-.76-.23-1.23-1-.97-1.77l.42-.9c.23-.73.99-1.17,1.7-.82l10.85,5.29c.69.34,1.13,1.05.77,1.8l-.68,1.42c-.14.3-.84.65-1.2.48Z"/>
      <path class="cls-21" d="M518.56,203.79c-.74.35-1.48.15-1.8-.59l-.33-.78c-.34-.79-.08-1.54.64-1.9l10.64-5.33c.43-.21.81-.28,1.27-.07.34.15.58.53.76.97l.43,1.06c.11.57-.08,1.24-.66,1.51l-10.95,5.15Z"/>
    </g>
    <g>
      <path class="cls-34" d="M136.23,199.39c.15.05.26.13.39.22.05.1.14.18.24.22.27.44.29.93.38,1.46l1.29,7.84c.02.09-.05.23.07.3v.28c.01.08,0,.17.08.23l.18,1.09.94,5.69,2.26,13.09.08.39,1.48,8.36c.01.08-.02.17.07.23v.2c0,.08,0,.17.08.23l.21,1.18c.04.24.03.56-.09.8l-1.71,3.25-.17.31-9.62,18.16-3.06,5.8c-.17.31-.56.41-.9.41h-1.45c-.09-.06-.2-.1-.33-.12-.07-.1-.17-.27-.3-.38l.08-46.08c.98-.53,1.69-1.49,1.75-2.59.08-1.53-1.02-2.9-2.62-3.32-1.79-.4-3.5.44-4.18,1.95-.66,1.45-.02,3.17,1.53,4v45.81c0,.38-.29.73-.69.72h-1.75c-.2-.01-.48-.23-.62-.33l-.25-.59-4.18-7.8-1.73-3.29-.21-.37-2.07-3.81-1.12-2.18-1.39-2.64-3.34-6.05c-.26-.47-.73-.92-.63-1.47l.87-4.82,2.03-10.6.07-.42c.04-.22.07-.36.11-.56l.77-4-.05-.33c.24-.23.16-.54.22-.82l.19-.85.24-1.5.15-.81.19-.99,2.03-11.85c.03-.19.03-.34.1-.47s.07-.26.08-.41v-.13c.11-.06.07-.2.08-.3v-.21c.07,0,.09-.05.09-.11,0-.04,0-.08-.07-.1l.15-.92c.07-.43.42-.77.79-.96.2-.1.37-.08.66-.08h22.17c.21,0,.29.02.42.07Z"/>
      <path class="cls-34" d="M134.53,158.8c.04.05.11.07.18.07h.07c.03.07.11.06.17.07l.63.15.23.08.4.13c.03.07.1.06.16.08l.47.14c.03.06.09.09.16.07.2.12.49.14.69.23l1.47.68,1.35.72,2.03,1.35c1.97,1.49,3.56,3.27,4.64,5.38.75,1.44,1.23,2.92,1.36,4.47,0,.09-.09.24.05.31v.35s0,1.67,0,1.67c-.21,3.94-2.56,7.54-5.87,10.03-.1,0-.16.07-.17.14l-1.41.95c-1.13.66-2.23,1.29-3.45,1.71-.06.02-.14,0-.16.08l-.79.29c-.07-.01-.14.01-.16.07l-.4.13c-.07.02-.19,0-.24.09-.02,0-.05,0-.07,0-.07,0-.14.01-.16.08l-.31.07c-.06.01-.13.01-.16.07h-.08c-.07,0-.14.01-.16.07l-.63.14c-.06.01-.13.01-.17.07h-.08c-.09,0-.19,0-.24.07h-.08c-.09,0-.19,0-.25.07h-.08c-.09,0-.19,0-.24.07h-.08c-.09,0-.19,0-.24.07l-.32.06-.81.13-.7.1-1.04.12-1.4.1c-1.02.07-2.05.07-3.08,0l-1.47-.1-1.05-.1-.71-.09c-.05-.07-.14-.06-.23-.07h-.16s-.42-.09-.42-.09c-.04,0-.1,0-.14,0-.05-.05-.11-.06-.18-.06h-.23c-.04-.06-.1-.08-.17-.08-.05,0-.12,0-.17-.02l-.55-.11s-.1-.03-.14-.02c-.04-.05-.11-.06-.17-.06h-.07c-.05-.08-.15-.07-.24-.07h-.07c0-.06-.07-.07-.12-.07-.07,0-.1.05-.14.07l-.7.38-.48.28c-1.69.99-3.44,1.87-5.24,2.74l-2.77,1.17c-.22.09-.44.14-.65.12l-.32-.13c-.25-.22-.23-.53-.1-.84l1.9-4.47,1.06-2.63c-.01-.17-.3-.29-.39-.37l-.64-.51-.51-.41-1.05-.91c-.17-.15-.18-.23-.32-.37-2.1-2.12-3.39-4.73-3.67-7.55.09-.09.1-.28-.02-.36v-.42s0-.87,0-.87c.02-2.85,1.32-5.61,3.23-7.89,0-.07-.02-.16,0-.2s.2-.05.24-.09c1.52-1.62,3.27-2.98,5.31-4.07,6.33-3.37,13.45-4.1,20.5-2.46ZM116.62,176.65c1.62.08,2.86-1.1,2.9-2.46.04-1.38-1.22-2.59-2.79-2.57s-2.69,1.17-2.7,2.5,1.06,2.45,2.59,2.53ZM126.21,176.63c1.62.2,2.97-.93,3.09-2.3.13-1.39-1.03-2.65-2.62-2.71-1.49-.06-2.71,1-2.84,2.29s.85,2.53,2.37,2.72ZM136.19,176.65c1.41.06,2.53-.83,2.82-1.95.3-1.19-.37-2.39-1.64-2.89-1.58-.62-3.36.3-3.73,1.78s.79,2.98,2.54,3.06Z"/>
    </g>
    <path class="cls-15" d="M608.19,145.36l.05.05-.21.22c-.03.05-.08.06-.11,0l.27-.27ZM598.31,155.56c2.26-3.99,5.44-7.49,9.52-9.88-2.44,2.09-4.67,4.25-6.56,6.85-1.42,1.95-2.66,3.89-3.88,6,.04-1.12.46-2.01.92-2.97ZM582.54,145.53c-1.78-2.97-3.92-5.53-6.28-8.1,4.31,3.3,7.61,7.7,9.79,12.61.51,1.15.87,2.27.9,3.53-1.47-2.8-2.75-5.45-4.4-8.04ZM622.81,165.34c0-1.02-.98-1.83-1.8-1.81-.63.02-1.03.27-1.39.69l-7.89,7.33-10.65,9.86v22.34c-2.01-3.16-4.17-6.16-6.67-8.99v-24.01c.51-3.41,1.6-6.58,3.13-9.65,7.16,1.05,13.14-3.27,16.52-9.21,2.79-5.05,3.66-10.52,3.77-16.23-5.68-.2-11.61,1.27-16.1,4.64-4.17,3.16-6.71,7.73-7.13,12.92-.18,2.27.17,4.44.85,6.67-.98,1.85-1.82,3.66-2.54,5.73-.39-1.56-.72-2.94-1.27-4.38-.65-1.83-1.4-3.58-2.27-5.31-.18-.37-.28-.58-.12-1,1.23-3.21,1.7-6.63,1.25-10.05-.67-5.12-3.08-9.74-6.87-13.27-4.9-4.49-10.92-6.74-17.46-7.67-.5,4.94-.62,9.87.49,14.67.93,4.17,2.75,8.01,5.51,11.29,3.63,4.22,8.75,6.86,14.36,6.67,2.2,4.48,3.61,9.19,4.03,14.16v19.8c-4.73-4.77-9.5-9.25-14.44-13.69l-5.21-4.68-16.68-14.6c-.87-.76-1.75-1.35-2.97-1.31-1.2.03-2.4,1-2.4,2.34v108.34c0,1.07,1.06,2.14,2.08,2.14l20.71.02c1.08-.32,1.76-1.01,1.85-2.11l.05-33.73c0-3.49,1.72-6.74,4.25-9.01,1.96-1.76,4.64-2.58,5.18-2.73-.05-.05-.11-.12-.19-.2l-1.9-1.91s-.08,0-.1,0c-.31,0-.62,0-.94,0-1.46,0-2.91-.13-4.36-.26-3.33-.31-6.7-.92-9.35-3.08,2.79-.38,5.86.52,8.41,1.74.92.44,1.89.7,2.89.95.38.09.76.17,1.14.25.38.07.77.14,1.16.2.38.06.75.11,1.13.19l-2.67-2.68c-1.76-1.96-3.43-4-4.94-6.15-1.28-1.83-2.44-3.75-3.42-5.75-1.03-.27-2.44-.77-3.06-.92-2.3-.55-4.29-1.98-5.66-3.94.03.05.23.03.29.04,1.1.18,2.12.64,3.05,1.25.96.63,1.76,1.45,2.66,2.15.35.27.73.51,1.15.69.33.14.97.49,1.56.71-.95-1.92-1.73-3.91-2.32-5.97-.63-2.2-.93-4.43-1.22-6.69-.34-2.71-.73-5.41-.97-8.13l1.55,8.72c1.02,5.78,3.43,11.14,6.88,15.9,2.77,3.8,5.94,7.22,9.36,10.38-.68-1.76-1.34-3.55-1.85-5.44-1.44-5.4-2.45-11.42-.24-16.77-.11.26.22.68.31.92.94,2.42.64,5.08.36,7.59-.31,2.73-.22,5.16.27,7.87.34,1.87.78,3.72,1.3,5.54.11.37.13.65.41.92l1.86,1.59c2.23-.08,4.36.49,6.22,1.53l-.36-4.06-.32-2.71c-.06-2.36.23-4.75,1.31-6.96.48,1.76.62,3.45.48,5.17-.03.77-.14,1.51-.28,2.25-.4,2.11-.57,4.24-.72,6.38,3.7,2.11,6.27,6.07,6.28,10.37l.06,33.65c.02,1.18.78,1.95,1.89,2.27l20.7-.05c1.11,0,2.03-1.16,2.03-2.22v-101.51Z"/>
    <g>
      <path class="cls-14" d="M455.88,269.13l-30.19-.08-.1.02-.02-26.46c-.31-2.22-1.93-3.92-4.09-4.12h-4.23s-.02-11-.02-11c4.37-.62,8.13-3.36,10.88-6.84,4.54-5.75,6.53-13.21,6.63-20.54.09-6.65-1.28-12.94-4.56-18.69-2.6-4.57-6.28-7.98-11.39-9.22v-2.67c0-2.03-1.41-3.76-3.44-3.91-2.13-.16-3.91,1.64-3.92,3.82v2.77c-5.22,1.18-9.11,5.12-11.71,9.74s-4.07,10.17-4.26,15.67v3.08c.28,7.21,2.33,14.31,6.81,19.97,2.69,3.38,6.43,6.11,10.67,6.8v11.02s-4.43.06-4.43.06c-2.17.17-4.08,2.1-4.08,4.42l-.02,26.14h-27.77s0-112.89,0-112.89l39.84.05c3.83,0,7.6.85,11.26,1.88,4.47,1.43,8.6,3.61,12.15,6.72,3.48,3.05,6.25,6.78,8.35,10.95,4.91,9.78,6.02,21.23,3.72,31.93-1.9,8.43-5.95,15.84-12.61,21.22l16.74,39.51c.08.19.18.28.08.39l-.28.3Z"/>
      <path class="cls-13" d="M425.59,269.06h-.07s-.11,0-.11,0h-1.33s0,.01,0,.01c-.06,0-.3,0-.3-.14v-25.7c0-.52-.46-.96-.97-.96h-15.52c-.58-.01-1.07.42-1.07,1.04v25.17s.04.58.04.58h-.03s-.54,0-.54,0h-.05s-1.21,0-1.21,0v-26.14c.02-2.32,1.93-4.25,4.09-4.42l4.44-.06v-11.02c1.43.23,2.83.24,4.27.04l.03,11h4.23c2.16.2,3.78,1.91,4.09,4.13l.02,26.46Z"/>
      <path class="cls-24" d="M423.42,221.78c-3.98,3.37-9.12,4.31-13.78,1.78l10.12-17.9,10.29-18.2c2.16,5.9,2.56,12.52,1.49,18.68-1.05,5.85-3.61,11.72-8.11,15.64Z"/>
      <path class="cls-24" d="M405.47,220.3c-1.38-1.27-2.35-2.91-3.34-4.52l11.09-19.56,7.25-12.72,3.32-5.71c1.37,1.21,2.5,2.55,3.48,4.07l-21.8,38.43Z"/>
      <path class="cls-24" d="M398.61,205.74c-1.24-7.43-.48-15.15,2.98-21.79,1.87-3.59,4.76-6.96,8.46-8.54,2.27-.93,4.65-1.28,7.17-.82l-7.05,11.79-10.29,17.22-1.28,2.13Z"/>
      <path class="cls-13" d="M416.93,171.93c-1.28-.16-2.41-.19-3.66,0l.04-2.78c.01-.8.74-1.5,1.51-1.62,1.18-.19,2.12.81,2.12,1.99v2.42Z"/>
    </g>
    <g>
      <path class="cls-8" d="M243.2,268.22s.07-.02.07-.1v-25.58c0-.08-.05-.09-.07-.09,0-.53.53-.95,1.05-.95,0,.01.02.09.1.09l8.58-.08c.4,0,.77-.6.77-.95l.02-9.99c.09-.34.58-.76.96-.76l7.53-.03c.58,0,.91-.46.91-.99v-9.5c0-.51.39-.84.83-.9.02.06.05.1.16.1h7.35s.05-.04.05-.07h-7.5c.06-.07.12-.07.25-.07l7.33-.05c.54,0,.74-.58.74-.97v-8.78c0-.43.48-.8.91-.8h7.16c.57,0,.97-.4.97-.95v-8.35c0-.39.43-.83.89-.83l9.38-.02c.55,0,1.02.47,1.02,1.02v69.43c0,.58-.45,1.08-1.07,1.08h-47.35c-.53,0-1.03-.48-1.03-.91Z"/>
      <path class="cls-8" d="M292.98,156.8c-.13.08-.14.18-.14.36v12.66c-.11.21-.16.36-.16.55-.23.2-.46.35-.84.35l-17.76.03c-.81,0-1.58.71-1.58,1.47l-.03,24.19c0,.47-.43.85-.89.85l-7.26.04c-.39,0-.92.34-.92.72v4.79s-.03,4.7-.03,4.7c0,.38-.25.69-.56.83-.05-.11-.12-.3-.27-.28-.06,0-.17.06-.18.09s.06.09.15.17h-7.45s-.05.04-.05.08h7.55s-.02.07-.09.07l-7.53.03c-.43,0-.62.58-.62.92v8.85c0,.09-.03.13-.07.16v-9.32s-.07.03-.08.05v9.18c0,.11.04.14.1.18-.04.32-.43.74-.88.75l-7.35.04c-.43,0-.85.37-.85.79v9.36c-.01.52-.4,1.01-.98,1.01h-6.3c-.65-.01-1.05-.5-1.05-1.1v-72.41c0-.51.51-.96,1.04-.96h53.9c.59,0,.89.33,1.13.81Z"/>
      <path class="cls-4" d="M291.52,179.51c-.06-.31-.29-.5-.64-.61l-12.43-3.84-2.31-.68c-.17-.34-.47-.47-.84-.4-.25.03-.63.23-.63.61v21.88c0,.48.27.77.72.8.35.03.79-.22.79-.65v-11.31c.8-.18,1.39-.43,2.14-.68l12.83-4.3c.35-.12.43-.57.38-.83ZM276.19,183.84v-7.95s12.39,3.79,12.39,3.79l-12.39,4.16Z"/>
      <path class="cls-23" d="M292.68,170.37c0-.19.04-.34.16-.55v-12.66c0-.18.01-.28.14-.36l.02,12.75c0,.36-.08.62-.31.82Z"/>
      <path class="cls-3" d="M243.2,268.22v-25.78s.07.01.07.09v25.58c0,.08-.05.09-.07.1Z"/>
      <path class="cls-3" d="M254.29,218.43s.02.04.02.08c-.06-.03-.1-.06-.1-.18v-9.18s.04-.05.07-.05v9.32Z"/>
      <path class="cls-3" d="M262.83,208.34c-.08.03-.16.06-.24.06h-7.55s.03-.06.05-.07h7.45c-.09-.08-.16-.14-.15-.18s.12-.09.18-.09c.15-.02.22.17.27.28Z"/>
      <path class="cls-3" d="M252.93,241.51l-8.58.08c-.07,0-.1-.08-.1-.09l8.68.02Z"/>
      <path class="cls-3" d="M263.94,218.39s.05,0,.07.02h7.5s-.03.07-.05.08h-7.35c-.11,0-.14-.03-.16-.09Z"/>
      <polygon class="cls-29" points="288.58 179.69 276.19 183.84 276.19 175.9 288.58 179.69"/>
    </g>
    <g>
      <path class="cls-11" d="M191.22,226.96s-.08,0-.12.02c.04,0,.08,0,.12-.01.18-.01.37-.03.56-.04-.19.02-.38.03-.56.04Z"/>
      <path class="cls-11" d="M216.62,177.6l-5.04-.07c-1.97-.03-3.87.03-5.81.23-.2.02-.37-.06-.37-.29l.03-2.59c-.1-6.08-2.61-11.89-6.96-16.02-.99-.94-2.04-1.68-3.2-2.35-.06-.04-.13-.14-.12-.18.07-.22,3.96-.19,5.16-.16,5.31.16,10.08,2.62,13.74,6.51,2.97,3.15,5.2,6.93,6.57,11.07.35,1.07,1.13,4.17.95,4.44-.03.04-.12.1-.22.07-1.56-.4-3.09-.65-4.73-.67Z"/>
      <path class="cls-19" d="M191.22,226.96c.18-.01.37-.02.56-.04-.19.02-.38.03-.56.04-.04,0-.08,0-.12.01.04,0,.08-.01.12-.02Z"/>
      <polygon class="cls-19" points="205.51 225.58 205.5 225.59 205.34 225.52 205.5 225.58 205.51 225.58"/>
      <path class="cls-35" d="M205.5,225.58l-.16-.06.16.07h0s0,0,0,0Z"/>
      <path class="cls-11" d="M221.75,181.84c-.39-1.18-1.48-1.99-2.8-1.99l-14.89-.03c-.56,0-1-.38-1-.92l-.02-4.39c-.11-3.26-.95-6.43-2.45-9.32-1.16-2.25-2.71-4.2-4.67-5.79-2.31-1.88-5.05-2.91-8.07-2.91h-22.54c-1.01.01-1.78.88-1.78,1.87v108.87c0,.96.67,1.91,1.71,1.91h22.01c.88,0,1.63-.88,1.63-1.74l.02-32.36c0-1.13.97-2.14,2.13-2.14l28.35-.02c1.57,0,2.62-1.36,2.62-2.99v-46.5c0-.61-.09-1.03-.25-1.52ZM215.18,228c-.09.55-.57.99-1.18.96-2.32-.1-4.54-.52-6.8-1-3.39-.72-5.21-.74-8.6-.02-2.36.5-4.67.89-7.08,1.02-.67.04-1.17-.4-1.23-1.01-.03-.31.08-.67.31-.91.02-.02.05-.05.07-.07.04-.03.08-.07.12-.09.09-.06.2-.11.31-.13.04,0,.08-.01.12-.02.18-.01.37-.02.56-.04.18-.02.37-.03.56-.05.37-.03.74-.07,1.1-.11,1.22-.14,2.43-.33,3.63-.58l1.7-.34c.55-.11,1.09-.2,1.64-.28.27-.04.55-.07.82-.1.27-.03.55-.06.83-.08h1.67s.69.06.69.06l.92.07.16.07h0s.76.09.76.09c.03.02.09.05.14.06l1.76.36c2.04.42,4.04.7,6.11.89.62.06.97.74.9,1.25ZM192.15,223.04c-.01-.55.43-1.13,1.04-1.15,2.74-.07,3.98-.2,6.55-1.28,1.86-.78,3.84-.93,5.72-.22l2.25.86c1.6.52,3.24.66,4.92.62.52-.01,1,.29,1.16.7.2.5.02.99-.33,1.34-.02.02-.06.03-.1.04-.06.02-.11.06-.13.12-.01,0-.03,0-.04.01-2.43.18-4.99-.18-7.25-1.13l-.37-.13c-.25-.08-.55-.2-.8-.3-.69-.28-1.43-.33-2.18-.31-.76.02-1.48.26-2.24.52l-2.59.9c-1.51.37-3.03.51-4.6.47-.59-.01-1.03-.57-1.03-1.08ZM214.01,214.36h-34.03c-.78,0-1.26-.83-1.23-1.44.03-.71.58-1.39,1.39-1.39h33.83c.76,0,1.26.78,1.28,1.38.02.62-.42,1.45-1.23,1.45ZM213.95,206.52h-33.82c-.8,0-1.34-.64-1.38-1.34-.03-.69.48-1.47,1.3-1.47h33.86c.78,0,1.3.67,1.33,1.33.04.66-.45,1.48-1.3,1.48ZM178.75,197.32c-.01-.69.52-1.44,1.32-1.44h33.61c.83-.01,1.45.45,1.55,1.24.08.63-.37,1.58-1.22,1.58h-33.96c-.77,0-1.28-.73-1.3-1.38ZM213.94,190.86h-33.89c-.76,0-1.27-.69-1.3-1.33-.04-.64.43-1.47,1.23-1.47h33.93c.78-.01,1.3.67,1.33,1.32.03.76-.44,1.37-1.3,1.49Z"/>
    </g>
    <g>
      <path class="cls-25" d="M51.2,268.64c-1.89.24-3.8.45-5.71.46l-8.43.02h0s.03-2.61.03-2.61h2.37s0-5.67,0-5.67c0-.27.12-.43.39-.43h3.63s.01-8.05.01-8.05l4.39-.05.04-4.3c1.17-.04,2.22-.14,3.24-.38v21.03Z"/>
      <path class="cls-30" d="M41.18,242.44l-4.25.02c-.24,0-.43.1-.45.35v3.09s-13.28,0-13.28,0c-.36,0-.53-.2-.53-.55v-17.28c.84-1.75,2.78-2.74,4.8-2.64,2.64-.09,4.84,1.68,4.63,4.4,2.22-.31,4.14,1.03,4.55,3.18.13.67.12,1.31.11,2.03,1.52-.12,2.95.45,3.81,1.69.29.44.57.9.57,1.4l.04,4.31Z"/>
      <path class="cls-22" d="M46.66,237.97h-5c-.22,0-.38.04-.52.15,0-.5-.28-.96-.57-1.4-.86-1.23-2.29-1.8-3.81-1.69.01-.72.02-1.36-.11-2.03-.41-2.15-2.33-3.49-4.55-3.18.21-2.71-1.99-4.49-4.63-4.4-2.02-.1-3.96.89-4.8,2.64v-15.12s1.59,0,1.59,0c2.69.02,5.34,2.09,5.15,4.93.67-.02,1.24-.02,1.85.11,1.99.42,3.3,2.15,3.09,4.18,2.87-.24,5.3,1.34,5.74,4.13l.05,1.78c2.19-.15,4.03,1.26,4.36,3.41l.09,1.86c.72-.07,1.42.04,2.04.18l.03,4.42Z"/>
      <path class="cls-33" d="M55.62,227.07v-1.65s-2.13,0-2.13,0v7.62s-.05.14-.05.14v.18h2.18s0-6.29,0-6.29Z"/>
      <path class="cls-33" d="M87.93,195.22c-2.14-8.91-6.35-17.58-12.68-24.3-5.83-6.18-13.27-10.66-21.5-12.99-4.4-1.24-9.01-2.07-13.62-2.07l-39.58-.04c-.19,0-.55.22-.55.38v112.58c0,.14.4.34.55.34h21.67s0-6.53,0-6.53c0-.16.1-.35.28-.35l4.5-.02v-5.91c0-.14.07-.35.22-.35l4.27-.02.02-5.46c0-.21.14-.35.35-.35h4.64s0-4.25,0-4.25h-13.29c-.36,0-.53-.19-.53-.54v-17.28s0-15.12,0-15.12v-37.79c0-.19.17-.48.36-.47l11.63.06c6.63.23,13.34,2.14,18.79,5.72v52.71s.04-.14.04-.14v-7.62s2.13,0,2.13,0l-.03-25.63h12.97c2.74,8.19,2.81,17.3.95,25.63-.63,2.75-1.52,5.42-2.71,7.95-.95,2.01-2.09,3.94-3.45,5.73-3.02,3.99-7.21,7.34-12.16,8.51v21.03c6.15-.79,12.03-3.01,17.12-6.6,3.26-2.31,6.14-5.03,8.66-8.12,5.16-6.35,8.75-13.86,10.76-21.77,3-11.8,3.04-25.08.2-36.92ZM67.75,197.72h-12.15s0-15.77,0-15.77c.11-.04.18.06.23.08,5.37,3.96,9.49,9.39,11.95,15.54,0,.03,0,.15-.03.15Z"/>
      <path class="cls-18" d="M45.29,199.7c-1.39,3.75-5.66,5.52-9.27,3.9-3.42-1.53-4.94-5.43-3.53-8.81,1.42-3.42,5.36-5.12,8.87-3.73,3.43,1.37,5.22,5.15,3.93,8.64Z"/>
      <path class="cls-17" d="M53.49,225.42v7.62s-.05.14-.05.14c-.02.06-.07.17-.2.17h-5.97c-.27,0-.47.05-.65.19l.03,4.42h-5c-.22,0-.38.04-.52.15l.04,4.31-4.25.02c-.24,0-.43.1-.45.35v3.09s0,4.25,0,4.25h-4.64c-.21,0-.35.14-.35.35l-.02,5.46-4.27.02c-.15,0-.22.21-.2.35v5.91s-4.52.02-4.52.02c-.17,0-.28.19-.28.35v6.51s5.88,0,5.88,0h0s.03-2.09.03-2.09c0-.1.15-.11.26-.11h0s.06,0,.09,0h2.72s.28-.08.28-.08l.03-.79-.04-4.7h3.66c.14,0,.26-.13.26-.27v-5.56s3.58-.04,3.58-.04l.02-6.39h4.26c.15-.04.26-.14.26-.29v-5.24s7.67-.04,7.67-.04l.02-4.24c0-.09.09-.21.2-.21l11.96.03c1.36-1.8,2.5-3.72,3.45-5.73,1.19-2.53,2.08-5.2,2.71-7.95h-16.02Z"/>
    </g>
  </g>
  <g>
    <path class="cls-31" d="M1.08,312.02c-1.09-.26-1.48-3.11-.58-4.12,5.29-3.92,12.35-4.35,18.41-1.72,6.86,2.98,13.75,2.05,19.92-2.56,1.07.93,1.15,2.19.89,3.67-.46,2.61-11.29,7.26-22.25,2.9-5.39-2.14-10.79-1.83-16.39,1.84Z"/>
    <path class="cls-31" d="M1.08,300.91c-1.09-.26-1.48-3.11-.58-4.12,5.29-3.92,12.35-4.35,18.41-1.72,6.86,2.98,13.75,2.05,19.92-2.56,1.07.93,1.15,2.19.89,3.67-.46,2.61-11.29,7.26-22.25,2.9-5.39-2.14-10.79-1.83-16.39,1.84Z"/>
    <path class="cls-1" d="M.53,289.77c-.65-1.12-.79-3.6.05-4.42,5.49-3.36,12.33-3.62,18.24-1.14,14.55,6.1,21.65-7.32,20.99.64-.19,2.32-10.58,8.06-21.78,3.45-5.82-2.4-11.84-2.1-17.5,1.49Z"/>
    <path class="cls-7" d="M3.78,316.19c2.67-.65,5,1.4,5.42,3.42.59,2.82-.89,4.87-3.33,5.67s-4.84-.69-5.56-2.73c-.99-2.82.46-5.63,3.47-6.35Z"/>
  </g>
</svg>