<?xml version="1.0" encoding="UTF-8"?>
<svg id="Layer_1" data-name="Layer 1" xmlns="http://www.w3.org/2000/svg" viewBox="0 0 3728.04 770.7">
  <path d="M378.15,705.45c-64.05,54.81-158.94,70.47-239.85,48.9-33.78-9-63.87-25.35-87.85-50.41-31.71-33.14-57.93-95.7-19.64-121.57,12.13-8.19,26.46-9.24,40.2-2.68,10.23,4.88,21.4,16.39,23.39,30.67l4.87,35.06c5.49,39.53,37.62,66.77,77.28,68.11,35.27,1.2,68.97-10.91,91.91-37.58,26.61-30.95,10.23-67.11-20.95-93.01-50.75-42.15-108.56-71.49-162.47-111.27C40.52,438.82,8.71,399.51,1.21,343.09c-11.07-83.33,55.03-158.5,135.02-181.37,68.76-19.65,142.22-13.53,205.42,19.18,30.95,16.02,52.99,41.67,64.49,74.02s4.89,71.3-20.24,96.3c-32.81,32.63-82.73,33.52-119.1,6.92-30.26-22.13-41.05-58.29-27.9-93.46,12.17-32.54,10.44-68.88-19.68-76.52-39.1-9.92-85.8,10.75-89.16,55.38-4.32,57.26,47.84,118.88,94.86,146.16l83.51,48.45c61.03,35.41,113.12,70.75,118.8,147.72,3.41,46.26-13.89,89.46-49.09,119.58Z"/>
  <path d="M1136.26,473.09c-.18-43.09-10.64-98.32-40.35-126.13-20.67-19.35-50.53-20.09-72.48-1.41-23.13,19.69-36.9,48.72-37,80.9l-.88,269.68c-21.2,5.77-41.91,7.6-62.97,4.16-28.23-4.61-48.45-27.11-48.45-56.79l-.11-574.69c0-33.68-24.96-43.92-20.41-53.05.98-1.96,4.45-4.84,6.78-5.47l32.82-8.77c15.02-4.01,30.19.61,44.97,5.2,27.15,8.43,47.1,31.9,47.16,61.98l.45,261.02c15.04-17.62,28.03-31.86,47.44-40.85,70.61-32.68,152.59-5.29,190.15,62.97,16.6,30.17,24.56,63.52,24.63,98.79l.45,245.14c-19.92,5.72-39.8,7.4-60.1,4.84-28.89-3.63-51.25-25.19-51.37-55.44l-.71-172.1Z"/>
  <path d="M1899.81,480.97c-11.65,19.21-21.09,34.38-36.25,48.1-33.35,30.19-80.97,39.33-122.47,20.48-31.54-14.33-54.69-39.91-68.84-71.35-12.3-27.31-19.25-56.05-19.16-86.26l.26-94.26c.07-24.95,17.61-45.07,41.78-51.18,22.83-5.77,45.48-3.29,69.3,2.62l.2,117.02c.07,42.26,8.06,95.27,36.44,125.12,14.6,15.36,36.69,17.2,53.12,4.24,29-22.85,43.97-70.97,44.25-107.51l1.58-201.52c.21-27.29,21.02-47.96,46.68-52.23,21.25-3.53,41.67-1.81,62.84,3.91l-.15,451.43c-.01,35.25-4.19,67.41-21.35,97.63-14.99,26.4-35,47.66-62.36,61.89-54.56,28.37-120.14,29.02-174.72.72-22.21-11.52-40.15-28.43-49.48-50.74-8.65-20.69-9.61-43.12,2.16-62.05,11.67-18.78,32.62-28.52,53.86-28.45s40.98,11.14,53.05,29.31c22.77,34.29-2.98,56.57,2.84,91.3,2.89,17.25,18.24,27.35,35.31,24.4,35.59-6.14,49.48-55.4,49.99-89.87l1.67-113.72-.56-69.02Z"/>
  <path d="M2932.14,467.04c-2.31-55.87,32.92-113.99,84.63-126.7l69.22-17.01,46.39-11.34c28.71-9.42,45.62-34.04,48.19-63.66,2.14-24.54-3.18-47.77-20.56-65.46-11.93-12.14-27.95-18.66-45.57-16.37-28.32,3.69-44.41,32.53-35.02,59.19,9.02,25.6,1.78,51.48-19.09,68.31-22.2,17.9-51.77,20.46-75.28,4.78-22.16-14.78-33.6-43.94-24.8-70.64,7.82-23.74,23.95-42.17,45.89-54.55,76.6-43.26,192.23-32.08,250.66,36.62,25.01,29.42,38.09,66.9,38.2,106.1l.55,189.48c.09,32.08,22.11,41.89,20.47,50.64-2.54,13.59-51.15,21.6-86.23,10.44-22.87-7.28-37.61-24.36-44.5-48.1-20.75,32.3-49.58,50.81-85.05,57.37-40.21,7.44-79.1-.27-114.13-21.76-30.27-18.57-52.38-49.28-53.96-87.35ZM3074.81,536.48c21.1,11.47,46.14,5.97,63.82-8.83,28.03-23.46,44.14-58.38,44.25-95.52l.37-132.79c-10.6,16.06-20.53,28.13-34.98,38.69l-73.73,53.87c-25.59,18.7-38.79,48.37-37.67,80.26.92,26.06,14.09,51.36,37.94,64.31Z"/>
  <path d="M483.29,573.31c-53.61-51.8-32.26-146.3,26.08-182.47,21.34-13.23,45.1-19.05,69.61-24.6l69.69-15.79c26.66-6.04,44.15-25.1,50.4-51.64,6.41-27.22,2.38-55.08-16.46-76.64-12.77-14.62-32.54-22.39-51.92-17.44-26.44,6.76-39.05,34.77-30.2,59.7s.98,50.23-18.95,66.75c-22.43,18.58-53.52,20.75-76.98,4.1-22.64-16.06-32.69-46.32-22.48-73.45,10.28-27.34,31.57-46.04,58.64-58.05,56.55-25.08,122.4-24.65,179.22.84,56.9,25.53,94.71,78.83,95.04,141.86l1.02,198.08c.18,35.19,34.27,44.62,13.68,56.88-47.35,17.86-109.5,9.29-123.36-45.33-49.25,77.19-160.57,77.54-223.02,17.19ZM595.47,573.7c22.85,12.72,49.17,4.85,67.5-11.83,25.94-23.58,40.64-57.86,40.72-93.87l.28-130.78c-10.36,15.84-19.84,26.91-33.09,37.4l-67.69,47.95c-22.18,15.71-37.56,37.37-43.57,64.1-7.42,32.98,4.99,69.84,35.86,87.02Z"/>
  <path d="M2342.22,582.37c-58.2,43.18-134.66,43.63-193.19,3.05-107.73-74.69-120.86-246.16-28.95-345.69,38.61-41.81,94.99-64.2,151.88-54.79,48.7,8.06,90.29,37.55,117.95,78.04,67.8,99.23,50.3,246.68-47.7,319.39ZM2281.6,565.68c33.16-34.68,39.6-101.33,38.41-149.63-1.49-60.18-16.11-149.15-63.22-185.69-17.77-13.78-40.56-9.7-54.12,8.39-12.59,16.8-21,36.43-25.52,58.26-14.45,69.78-9.7,142.92,14.24,209.92,8.26,23.12,19.65,43.1,36.69,59.18,15.65,14.76,37.88,15.95,53.53-.42Z"/>
  <path d="M3336.91,232.01c55.91-17.24,119.16-1.94,130.43,56l32.8,168.73c8.77,45.14,18.32,87.99,32.27,131.55,4.22,13.19,11.62,24.99,20.56,35.08,12.23,13.79,31.74,14.39,45.59,2.19,14-12.33,24.6-27.21,33.48-44.46,30.14-58.55,48-122.57,51.81-188.61,2.45-42.34-6.37-92.77-48.59-102.74-21.31-5.03-36.74-20.95-42.6-41.67-8.62-30.46,4.71-61.8,32.42-74.59,28.16-13,63.2-4.97,79.56,22.72,27.56,46.64,26.04,127.2,19.14,182.61-8.7,69.89-25.59,136.87-55.6,200.46-25.11,53.21-69.19,114.96-131.04,112.07-36.72-1.71-68.51-18.33-91.03-47.3-23.35-30.04-39.82-64.35-47.73-101.98l-24.01-114.17-37.46-195.88Z"/>
  <path d="M2859.53,610.17c-48.44,29.01-107.63,33.9-158.91,12.11-31.5-13.39-55.5-40.73-60.81-73.69-2.68-16.67,7.14-30.68,21.63-33.25,14.57-2.58,28.4,7.38,31.1,23.06l4.64,26.93c3.81,22.12,21.73,35.58,43.45,38.08,26.71,3.08,53.12-6.39,68.11-29.32,17.12-26.19-10.51-52.55-36.39-69.87l-80.14-53.63c-19.5-13.05-36.44-28.06-47.41-48.85s-17.18-45.61-10.67-69.85c24.48-91.03,141.02-113.73,220.91-70.36,21.9,11.89,37.08,32.97,41.18,56.69,3.82,22.14-4.53,43-20.84,55.74-16.91,13.21-39.03,15.43-59.17,6.95-27.59-11.61-40.9-40.72-29.66-68.71,3.76-9.37,5.22-21.43,3.09-31.01-3.1-13.89-15.85-19.32-29.1-18.89-18.8.62-37.85,9.52-43.37,28.27-12.37,42.04,29.71,86.73,67.66,109.24l77.76,46.13c41.67,24.72,56.51,77.99,36.17,122.03-8.25,17.86-21.41,31.5-39.23,42.17Z"/>
  <path d="M2601.84,602.54c21.11,33.44,48.41,21.24,49.26,40.45.19,4.37-4.62,13.74-10.28,13.29-24.32-1.94-46.9-6.3-68.82-15.7-63.37-27.16-97.69-88.49-97.75-156.76l-.2-249.96-19.52-.42c-8.96-.19-14.73-5.62-14.58-14.11.12-7.22,5.82-13.06,14.37-13.78,52.49-9.68,64.45-62.57,63.38-113.96,35.27-1.62,63.03,23,66.57,57.21l1.65,56.88,14.4,1.02c9.16.65,15.88,5.05,16.1,12.84.25,9.15-6.6,13.53-15.91,14.04l-14.6.79.25,313.3c.02,20.31,5.4,38.57,15.68,54.86Z"/>
  <path d="M1650.91,655.61l.48,27.2c-22.68-2.81-41.69-4.75-62.25-11.33-72.45-23.18-113.69-86.33-113.73-161.66l-.13-251.06-20.87-.63c-6.66-.2-12.61-5.33-13.46-11.22-1.06-7.28,3.16-13.87,10.59-15.89,55.76-7.9,67.7-61.18,67.26-114.56,32.77-2.07,60.55,20.49,65.05,53.01l2.99,61.4,19.68,1.58c7.08.57,11.65,8.52,10.69,14.62-1.11,7.06-7,10.71-14.6,11.05l-16.02.71.17,310.81c.02,40.76,19.82,84.52,64.15,85.97Z"/>
  <path d="M1422.31,676.67c-27.44,12.53-56.66,13.93-84.1,3.69-24.61-9.18-40.22-31.34-40.29-58.8l-.67-277.88c-.06-24.28-22.11-35.31-18.88-43.95,4.66-12.45,50.08-18.39,80.92-8.46,25.24,8.13,42.97,29.95,43.05,57.28l.83,275.14c.1,32.54,23.45,36.87,19.14,52.97Z"/>
  <path d="M1336.39,153.1c29.9-7.99,57.37,9.59,64.69,37.62,7.18,27.53-9.21,56.42-37.46,63.86-27.11,7.14-55.62-8.54-63.77-35.16-8.55-27.91,6.43-58.27,36.55-66.32Z"/>
</svg>